<svg width="80" height="66" viewBox="0 0 80 66" fill="none" xmlns="http://www.w3.org/2000/svg">
<rect width="79.7025" height="65.7924" rx="32.8962" fill="#003A48"/>
<path d="M56.0624 32.1415C56.0624 33.0542 55.4232 33.793 54.6336 33.793L20.7198 33.793C19.9302 33.793 19.291 33.0542 19.291 32.1415C19.291 31.2288 19.9302 30.49 20.7198 30.49L54.6336 30.49C55.4223 30.49 56.0624 31.2299 56.0624 32.1415Z" fill="white"/>
<path d="M56.4994 31.976C56.4994 32.2924 56.3793 32.6087 56.1372 32.8666L42.4499 47.3821C41.907 47.9582 40.9514 48.0268 40.3157 47.5348C39.68 47.042 39.6053 46.1761 40.1472 45.601L52.8961 31.976L40.2259 20.4751C39.6366 19.9393 39.6386 19.0697 40.232 18.5357C40.8243 18.0017 41.7829 18.0035 42.3722 18.5412L56.0584 31.0086C56.3511 31.2747 56.4994 31.6249 56.4994 31.976Z" fill="white"/>
</svg>
