<?xml version="1.0" encoding="UTF-8"?>
<svg width="688" height="12" fill="none" version="1.1" viewBox="0 0 688 12" xmlns="http://www.w3.org/2000/svg">
 <path d="m1 6c4.5733-6.6667 9.1467-6.6667 13.72 0 4.5733 6.6667 9.1467 6.6667 13.72 0 4.5733-6.6667 9.1467-6.6667 13.72 0 4.5733 6.6667 9.1467 6.6667 13.72 0 4.5733-6.6667 9.1467-6.6667 13.72 0 4.5733 6.6667 9.1467 6.6667 13.72 0 4.5733-6.6667 9.1467-6.6667 13.72 0 4.573 6.6667 9.147 6.6667 13.72 0 4.573-6.6667 9.147-6.6667 13.72 0 4.573 6.6667 9.147 6.6667 13.72 0 4.573-6.6667 9.147-6.6667 13.72 0 4.573 6.6667 9.147 6.6667 13.72 0 4.573-6.6667 9.147-6.6667 13.72 0 4.573 6.6667 9.147 6.6667 13.72 0 4.573-6.6667 9.147-6.6667 13.72 0 4.573 6.6667 9.147 6.6667 13.72 0 4.573-6.6667 9.147-6.6667 13.72 0 4.573 6.6667 9.147 6.6667 13.72 0 4.573-6.6667 9.147-6.6667 13.72 0 4.573 6.6667 9.147 6.6667 13.72 0 4.573-6.6667 9.147-6.6667 13.72 0 4.573 6.6667 9.147 6.6667 13.72 0 4.573-6.6667 9.147-6.6667 13.72 0 4.573 6.6667 9.147 6.6667 13.72 0 4.573-6.6667 9.147-6.6667 13.72 0 4.573 6.6667 9.147 6.6667 13.72 0 4.573-6.6667 9.147-6.6667 13.72 0 4.573 6.6667 9.147 6.6667 13.72 0 4.573-6.6667 9.147-6.6667 13.72 0 4.573 6.6667 9.147 6.6667 13.72 0 4.573-6.6667 9.147-6.6667 13.72 0 4.573 6.6667 9.147 6.6667 13.72 0 4.573-6.6667 9.147-6.6667 13.72 0 4.573 6.6667 9.147 6.6667 13.72 0 4.573-6.6667 9.147-6.6667 13.72 0 4.573 6.6667 9.147 6.6667 13.72 0 4.573-6.6667 9.147-6.6667 13.72 0 4.573 6.6667 9.147 6.6667 13.72 0 4.573-6.6667 9.147-6.6667 13.72 0 4.573 6.6667 9.147 6.6667 13.72 0 4.573-6.6667 9.147-6.6667 13.72 0 4.573 6.6667 9.147 6.6667 13.72 0 4.573-6.6667 9.147-6.6667 13.72 0 4.573 6.6667 9.147 6.6667 13.72 0 4.573-6.6667 9.147-6.6667 13.72 0 4.573 6.6667 9.147 6.6667 13.72 0 4.573-6.6667 9.147-6.6667 13.72 0 4.573 6.6667 9.147 6.6667 13.72 0 4.573-6.6667 9.147-6.6667 13.72 0 4.573 6.6667 9.147 6.6667 13.72 0" stroke="#101066" stroke-linecap="round" stroke-opacity=".8" stroke-width="2"/>
</svg>
