<svg width="29" height="12" viewBox="0 0 29 12" fill="none" xmlns="http://www.w3.org/2000/svg">
<path d="M-661 6C-656.26 -0.666667 -651.52 -0.666667 -646.78 6C-642.04 12.6667 -637.3 12.6667 -632.56 6C-627.82 -0.666667 -623.08 -0.666667 -618.34 6C-613.6 12.6667 -608.86 12.6667 -604.12 6C-599.38 -0.666667 -594.64 -0.666667 -589.9 6C-585.16 12.6667 -580.42 12.6667 -575.68 6C-570.94 -0.666667 -566.2 -0.666667 -561.46 6C-556.72 12.6667 -551.98 12.6667 -547.24 6C-542.5 -0.666667 -537.76 -0.666667 -533.02 6C-528.28 12.6667 -523.54 12.6667 -518.8 6C-514.06 -0.666667 -509.32 -0.666667 -504.58 6C-499.84 12.6667 -495.1 12.6667 -490.36 6C-485.62 -0.666667 -480.88 -0.666667 -476.14 6C-471.4 12.6667 -466.66 12.6667 -461.92 6C-457.18 -0.666667 -452.44 -0.666667 -447.7 6C-442.96 12.6667 -438.22 12.6667 -433.48 6C-428.74 -0.666667 -424 -0.666667 -419.26 6C-414.52 12.6667 -409.78 12.6667 -405.04 6C-400.3 -0.666667 -395.56 -0.666667 -390.82 6C-386.08 12.6667 -381.34 12.6667 -376.6 6C-371.86 -0.666667 -367.12 -0.666667 -362.38 6C-357.64 12.6667 -352.9 12.6667 -348.16 6C-343.42 -0.666667 -338.68 -0.666667 -333.94 6C-329.2 12.6667 -324.46 12.6667 -319.72 6C-314.98 -0.666667 -310.24 -0.666667 -305.5 6C-300.76 12.6667 -296.02 12.6667 -291.28 6C-286.54 -0.666667 -281.8 -0.666667 -277.06 6C-272.32 12.6667 -267.58 12.6667 -262.84 6C-258.1 -0.666667 -253.36 -0.666667 -248.62 6C-243.88 12.6667 -239.14 12.6667 -234.4 6C-229.66 -0.666667 -224.92 -0.666667 -220.18 6C-215.44 12.6667 -210.7 12.6667 -205.96 6C-201.22 -0.666667 -196.48 -0.666667 -191.74 6C-187 12.6667 -182.26 12.6667 -177.52 6C-172.78 -0.666667 -168.04 -0.666667 -163.3 6C-158.56 12.6667 -153.82 12.6667 -149.08 6C-144.34 -0.666667 -139.6 -0.666667 -134.86 6C-130.12 12.6667 -125.38 12.6667 -120.64 6C-115.9 -0.666667 -111.16 -0.666667 -106.42 6C-101.68 12.6667 -96.94 12.6667 -92.2 6C-87.46 -0.666667 -82.72 -0.666667 -77.98 6C-73.24 12.6667 -68.5 12.6667 -63.76 6C-59.02 -0.666667 -54.28 -0.666667 -49.54 6C-44.8 12.6667 -40.06 12.6667 -35.32 6C-30.58 -0.666667 -25.84 -0.666667 -21.1 6C-16.36 12.6667 -11.62 12.6667 -6.88 6C-2.14 -0.666667 2.6 -0.666667 7.34 6C12.08 12.6667 16.82 12.6667 21.56 6C26.3 -0.666667 31.04 -0.666667 35.78 6C40.52 12.6667 45.26 12.6667 50 6" stroke="#101066" stroke-width="2" stroke-linecap="round"/>
</svg>
