<svg width="270" height="111" xmlns="http://www.w3.org/2000/svg" viewBox="0 0 379.44 155.98">
	<symbol id="logo-text">
		<g>
			<g id="Layer_1-2" data-name="Layer 1">
				<path class="cls-1" d="M378.76,40.43l-19,.72a.73.73,0,0,1-.72-1l5.08-13.66a.73.73,0,0,1,1.18-.29l13.92,13A.72.72,0,0,1,378.76,40.43ZM345,12.12a1,1,0,0,0,0-1.69C341,7.82,329.23.12,329.23.12a.71.71,0,0,0-1.09.74l3.8,18.23a1,1,0,0,0,1.56.64Zm22.88-8.37a.78.78,0,0,0,0-.21V3.47a.68.68,0,0,0,0-.14s0,0,0-.06a.91.91,0,0,0-.07-.14l0,0a.86.86,0,0,0-.13-.14l0,0a.57.57,0,0,0-.13-.08l-.06,0-.13,0h-.06l-.14,0H367l-.2.09h0L317.59,35.63a.68.68,0,0,0-.32.54,1.27,1.27,0,0,0,0,.2.3.3,0,0,0,0,.1.66.66,0,0,0,.35.4.79.79,0,0,0,.22.06l20.39,2.5a.65.65,0,0,1,.35.15.72.72,0,0,1,.23.31L346,59.16a.71.71,0,0,0,.08.15l0,0a.32.32,0,0,0,.09.08.23.23,0,0,0,.07.07l.08,0,.11.05h.08l.12,0,.1,0h.11l.08,0,.11-.05.11-.1.05,0a.7.7,0,0,0,.11-.21l8.78-23.62L367.88,3.75Z"/>
				<path class="cls-1" d="M49.48,64.55H33.09v45.38H16.39V64.55H0v-15H49.48Z"/>
				<path class="cls-1" d="M77,91.46h-6v18.47H54.31V49.58H80.46c13,0,22.44,8.74,22.44,21.36a19.31,19.31,0,0,1-9.58,17l12,22H86.75Zm-6-14h7.6c4.64,0,7.32-2.8,7.32-6.57s-2.68-6.53-7.32-6.53h-7.6Z"/>
				<path class="cls-1" d="M149.77,95.51v14.42H110.43V49.58H149V64H127v8.89H146.8V86.47H127v9Z"/>
				<path class="cls-1" d="M214.73,49.58l-23.1,60.35H176.15l-23.6-60.35h19l12.32,37.51,12-37.51Z"/>
				<path class="cls-1" d="M244,111.45c-19.4,0-33.24-13.25-33.24-31.69s13.84-31.7,33.24-31.7,33.15,13.2,33.15,31.7-13.8,31.69-33.15,31.69ZM244,96c9.19,0,15.84-6.79,15.84-16.23S253.21,63.53,244,63.53s-15.93,6.83-15.93,16.23S234.84,96,244,96Z"/>
				<path class="cls-1" d="M305.73,91.46h-6v18.47H283.08V49.58h26.15c13,0,22.44,8.74,22.44,21.36a19.33,19.33,0,0,1-9.58,17l12,22H315.52Zm-6-14h7.6c4.64,0,7.32-2.8,7.32-6.57s-2.68-6.53-7.32-6.53h-7.6Z"/>
				<path class="cls-1" d="M15.82,24.88H10.6V39.34H5.28V24.88H.06V20.11H15.82Z"/>
				<path class="cls-1" d="M34,20.11V39.34H28.7V32H22.93v7.38H17.59V20.11h5.34v6.94H28.7V20.11Z"/>
				<path class="cls-1" d="M49.41,34.75v4.59H36.87V20.11H49.18v4.58h-7v2.83h6.31v4.35H42.15v2.88Z"/>
				<path class="cls-1" d="M208.33,146.52v8.55H185V119.29h22.9v8.52H194.82v5.27h11.75v8.09H194.82v5.35Z"/>
				<path class="cls-1" d="M277.06,128.17h-9.72v26.9h-9.9v-26.9h-9.72v-8.88h29.34Z"/>
				<path class="cls-1" d="M82.8,132.22c0,7.5-5.65,13-13.26,13H64.19v9.88H54.31V119.29H69.54C77.15,119.29,82.8,124.71,82.8,132.22Zm-10.13,0a4.11,4.11,0,0,0-4.31-4.34H64.19v8.68h4.17A4.11,4.11,0,0,0,72.67,132.24Z"/>
				<path class="cls-1" d="M98.67,144.12H95.1v10.95H85.24V119.29h15.51c7.72,0,13.31,5.18,13.31,12.66a11.48,11.48,0,0,1-5.68,10.11l7.1,13h-11Zm-3.57-8.3h4.5c2.76,0,4.34-1.66,4.34-3.9s-1.58-3.87-4.34-3.87H95.1Z"/>
				<path class="cls-1" d="M136.35,156c-11.5,0-19.71-7.86-19.71-18.8s8.21-18.8,19.71-18.8S156,126.22,156,137.18,147.82,156,136.35,156Zm0-9.17c5.45,0,9.39-4,9.39-9.63s-3.94-9.62-9.39-9.62a9.63,9.63,0,0,0,0,19.25Z"/>
				<path class="cls-1" d="M170.25,119.29v23c0,2.77-1.62,4.5-3.95,4.5a5.13,5.13,0,0,1-4-1.74l-7.3,5.86c2.46,3.16,6.47,5.06,11.34,5.06,8.3,0,13.88-5.42,13.88-13.18V119.29Z"/>
				<path class="cls-1" d="M230.94,146.75a9.58,9.58,0,0,1,0-19.15,8.18,8.18,0,0,1,6.21,2.77l8.42-5a18,18,0,0,0-14.65-7c-10.89,0-19,8.07-19,18.83S220,156,230.92,156h0a17.91,17.91,0,0,0,14.69-7.11l-8.46-5A8,8,0,0,1,230.94,146.75Z"/>
			</g>
		</g>
	</symbol>
</svg>
