<svg width="375" height="789" viewBox="0 0 375 789" fill="none" xmlns="http://www.w3.org/2000/svg">
<path d="M-1 0L375 7.02787e-05L375 789L-1.00013 789L-1 0Z" fill="url(#paint0_linear)" fill-opacity="0.8"/>
<mask id="mask0" mask-type="alpha" maskUnits="userSpaceOnUse" x="-1" y="0" width="377" height="789">
<path d="M-1 0L375 4.6661e-05L375 789L-1.00019 789L-1 0Z" fill="url(#paint1_radial)"/>
</mask>
<g mask="url(#mask0)">
<path d="M513.136 315.506C660.258 518.953 582.2 608.997 393.61 745.373C205.021 881.75 -15.1457 783.643 -162.267 580.196C-309.389 376.748 -210.828 93.5875 -22.2385 -42.7893C166.351 -179.166 366.015 112.058 513.136 315.506Z" fill="url(#paint2_linear)" fill-opacity="0.29"/>
</g>
<defs>
<linearGradient id="paint0_linear" x1="187" y1="-58.6818" x2="187" y2="1068.6" gradientUnits="userSpaceOnUse">
<stop offset="0.114063" stop-color="#6B5DF6" stop-opacity="0"/>
<stop offset="0.479598" stop-color="#6B5DF6" stop-opacity="0.18"/>
<stop offset="0.879021" stop-color="#6B5DF6" stop-opacity="0.67"/>
</linearGradient>
<radialGradient id="paint1_radial" cx="0" cy="0" r="1" gradientUnits="userSpaceOnUse" gradientTransform="translate(221.548 534.794) rotate(-104.829) scale(604.231 413.49)">
<stop offset="0.427083" stop-color="#7155FF"/>
<stop offset="0.927891" stop-color="#DBD5FF"/>
</radialGradient>
<linearGradient id="paint2_linear" x1="-97.4121" y1="-389.516" x2="516.126" y2="941.017" gradientUnits="userSpaceOnUse">
<stop stop-color="#DBD5FF" stop-opacity="0"/>
<stop offset="0.317708" stop-color="#DBD5FF" stop-opacity="0.8"/>
<stop offset="0.737822" stop-color="#5D3EFA"/>
</linearGradient>
</defs>
</svg>
