<?xml version="1.0" encoding="utf-8"?>
<!-- Generator: Adobe Illustrator 25.0.0, SVG Export Plug-In . SVG Version: 6.00 Build 0)  -->
<svg version="1.1" id="Layer_1" xmlns="http://www.w3.org/2000/svg" xmlns:xlink="http://www.w3.org/1999/xlink" x="0px" y="0px"
	 viewBox="0 0 28 22" style="enable-background:new 0 0 28 22;" xml:space="preserve">
<path d="M27.2,10.5c0,0.7-0.5,1.2-1,1.2H1.9c-0.6,0-1-0.5-1-1.2c0-0.7,0.5-1.2,1-1.2h24.3C26.7,9.3,27.2,9.9,27.2,10.5z"/>
<path d="M27.5,10.4c0,0.2-0.1,0.5-0.3,0.6l-9.8,10.5c-0.4,0.4-1.1,0.5-1.5,0.1c-0.5-0.4-0.5-1-0.1-1.4l9.1-9.9L15.9,2
	c-0.4-0.4-0.4-1,0-1.4c0.4-0.4,1.1-0.4,1.5,0l9.8,9C27.4,9.9,27.5,10.1,27.5,10.4z"/>
</svg>
