<?xml version="1.0" encoding="utf-8"?>
<!-- Generator: Adobe Illustrator 25.0.0, SVG Export Plug-In . SVG Version: 6.00 Build 0)  -->
<svg version="1.1" id="Layer_1" xmlns="http://www.w3.org/2000/svg" xmlns:xlink="http://www.w3.org/1999/xlink" x="0px" y="0px"
	 viewBox="0 0 28 22" style="enable-background:new 0 0 28 22;" xml:space="preserve">
<path d="M1.1,11.8c0-0.7,0.5-1.2,1-1.2h24.3c0.6,0,1,0.5,1,1.2c0,0.7-0.5,1.2-1,1.2H2.2C1.6,13,1.1,12.4,1.1,11.8z"/>
<path d="M0.8,11.9c0-0.2,0.1-0.5,0.3-0.6l9.8-10.5c0.4-0.4,1.1-0.5,1.5-0.1c0.5,0.4,0.5,1,0.1,1.4l-9.1,9.9l9.1,8.3
	c0.4,0.4,0.4,1,0,1.4c-0.4,0.4-1.1,0.4-1.5,0l-9.8-9C0.9,12.4,0.8,12.1,0.8,11.9z"/>
</svg>
