<?xml version="1.0" encoding="UTF-8" standalone="no"?>
<svg
   xmlns:dc="http://purl.org/dc/elements/1.1/"
   xmlns:cc="http://creativecommons.org/ns#"
   xmlns:rdf="http://www.w3.org/1999/02/22-rdf-syntax-ns#"
   xmlns:svg="http://www.w3.org/2000/svg"
   xmlns="http://www.w3.org/2000/svg"
   xmlns:sodipodi="http://sodipodi.sourceforge.net/DTD/sodipodi-0.dtd"
   xmlns:inkscape="http://www.inkscape.org/namespaces/inkscape"
   inkscape:version="1.0 (4035a4f, 2020-05-01)"
   sodipodi:docname="Call.svg"
   id="svg853"
   version="1.1"
   fill="none"
   viewBox="0 0 57 57"
   height="57"
   width="57">
  <metadata
     id="metadata859">
    <rdf:RDF>
      <cc:Work
         rdf:about="">
        <dc:format>image/svg+xml</dc:format>
        <dc:type
           rdf:resource="http://purl.org/dc/dcmitype/StillImage" />
      </cc:Work>
    </rdf:RDF>
  </metadata>
  <defs
     id="defs857" />
  <sodipodi:namedview
     inkscape:current-layer="svg853"
     inkscape:window-maximized="0"
     inkscape:window-y="23"
     inkscape:window-x="0"
     inkscape:cy="23.127976"
     inkscape:cx="28.5"
     inkscape:zoom="17.684211"
     showgrid="false"
     id="namedview855"
     inkscape:window-height="1076"
     inkscape:window-width="1826"
     inkscape:pageshadow="2"
     inkscape:pageopacity="0"
     guidetolerance="10"
     gridtolerance="10"
     objecttolerance="10"
     borderopacity="1"
     bordercolor="#666666"
     pagecolor="#ffffff" />
  <path
     style="fill:#000000"
     id="path851"
     fill="white"
     d="M55.5837 42.7968C57.3506 44.2401 57.4838 46.7586 55.8734 48.3689L49.0665 55.1758C43.5622 60.6801 24.6068 52.9079 14.3497 42.6483C4.0905 32.3912 -3.68189 13.4356 1.82219 7.93152L8.62912 1.12459C10.2368 -0.48307 12.758 -0.349978 14.2012 1.41429L23.229 12.4465C24.6227 14.1508 24.4974 16.7528 22.9445 18.3057L18.6434 22.6068C17.7743 23.4759 17.5603 25.1097 18.2232 26.2215C18.2676 26.3102 18.3642 26.4955 18.5182 26.767C18.7818 27.2263 19.1028 27.7483 19.489 28.3198C20.5983 29.9641 21.9815 31.6683 23.657 33.3413C25.33 35.0168 27.0369 36.4026 28.6837 37.5119C29.2552 37.8981 29.7798 38.2218 30.2417 38.4854C30.5106 38.6393 30.6985 38.7385 30.8499 38.8168C31.9016 39.4275 33.5302 39.2135 34.3915 38.3549L38.69 34.0537C40.2429 32.5009 42.8502 32.3782 44.5518 33.7693L55.5837 42.7968ZM54.3023 44.3628L43.2701 35.3376C42.3696 34.6016 40.9394 34.6695 40.1226 35.4864L35.8241 39.7849C34.3129 41.296 31.677 41.6379 29.897 40.5992C29.7691 40.5366 29.5447 40.4191 29.2367 40.2443C28.733 39.9546 28.1666 39.6049 27.5507 39.1899C25.8021 38.0103 23.9934 36.5435 22.2239 34.7739C20.4544 33.0045 18.9876 31.1984 17.8106 29.4524C17.3956 28.8365 17.0459 28.2728 16.7588 27.769C16.5839 27.4611 16.4665 27.2392 16.4456 27.187C15.3416 25.3471 15.6913 22.6954 17.2129 21.1739L21.5114 16.8754C22.3283 16.0584 22.3961 14.6282 21.6601 13.7279L12.6323 2.69565C11.9486 1.85788 10.8185 1.79781 10.0616 2.55471L3.25462 9.36165C-1.11957 13.7358 6.2351 31.6739 15.7794 41.2182C25.3237 50.7598 43.2617 58.1173 47.636 53.743L54.4402 46.9361C55.2023 46.1766 55.1427 45.0518 54.3023 44.3628Z"
     clip-rule="evenodd"
     fill-rule="evenodd" />
</svg>
