<svg width="72" height="72" viewBox="0 0 72 72" fill="none" xmlns="http://www.w3.org/2000/svg">
<path d="M53.9804 42.2459C52.0739 40.3601 49.7832 38.7592 47.2187 37.9212C46.0209 37.4844 44.5287 37.5838 43.6214 38.5623C42.6616 39.5409 42.7441 41.0218 42.3298 42.2459C41.7505 43.9818 40.2921 44.5385 38.4718 44.2124C37.1334 43.9799 36.2579 43.4044 35.0413 42.4727C33.6466 41.4323 32.0007 39.6383 30.9585 37.8518C30.1036 36.564 29.5506 34.8356 29.7175 33.9433C29.8862 33.0791 31.7645 32.678 33.2773 31.8625C35.2438 30.7377 35.6337 28.9906 34.7995 26.9586C34.3084 25.6932 33.7741 24.4447 33.2005 23.215C32.1357 20.9373 30.9003 18.7347 29.4213 16.6989C28.1653 14.9874 26.5775 13.0584 24.2774 13.0003C22.6671 12.9834 21.1074 13.707 19.8852 14.7193C18.318 16.1009 17.2102 17.9361 16.2991 19.7976C15.8567 20.6936 15.5155 21.6366 15.2981 22.6057C15.15 23.3574 15.0506 24.1185 15 24.8834C15.0037 25.0165 15.0037 25.1514 15.0075 25.2845C15.0506 26.4599 15.1537 27.6353 15.3168 28.7994C15.3262 28.8275 15.3337 28.8556 15.3431 28.8838C15.5399 30.2335 16.0385 31.5663 16.4884 32.8317C18.0069 37.0326 20.6088 40.7125 23.3757 44.1786C28.3003 50.1886 32.2557 55.3419 39.8909 58.0132C41.6662 58.5868 43.5239 58.9298 45.3872 58.9992C46.5532 59.0123 47.7174 58.8624 48.8684 58.688C51.4066 58.2831 54.0291 57.5576 55.9675 55.7843C56.5224 55.2463 56.8542 54.5339 57.1597 53.8328C57.5028 53.0267 57.8121 52.1757 57.8027 51.2871C57.9508 47.821 56.3255 44.7073 53.9804 42.2459ZM56.7398 51.6676C56.663 52.4156 55.9412 54.3015 55.3414 54.9294C53.6673 56.5641 51.1423 57.2839 48.4016 57.7095C47.7024 57.822 46.3077 57.9888 45.1792 57.9457C43.6795 57.8838 42.5379 57.6551 40.8938 57.2277C37.8907 56.3523 34.6739 54.4964 32.3757 52.5281C29.3969 49.9899 26.9731 46.8837 24.478 43.8881C22.8208 41.8372 21.1393 39.5952 19.6265 37.057C18.6011 35.2255 17.9356 33.799 17.2945 31.9993C17.1764 31.7425 17.0621 31.4838 16.9571 31.2233C16.4322 29.9073 16.1135 28.5145 16.0029 27.1029C15.9167 26.0194 15.9598 24.9284 16.1304 23.8542C16.1454 23.6761 16.166 23.5205 16.1885 23.4081C16.3703 22.2927 16.7996 21.1942 17.1202 20.4968C17.6769 19.2727 18.3743 18.1142 19.1654 17.0269C19.8496 16.1477 20.8787 15.0005 22.2659 14.4681C23.0158 14.1438 24.3542 13.7989 25.404 14.29C27.4398 15.1861 29.2301 18.1536 30.7504 20.7086C31.8058 22.6076 32.8143 24.7971 33.476 26.4374C34.1453 28.0871 34.5014 29.0637 33.7685 30.1079C33.2661 30.8315 31.9895 31.3414 30.6754 31.8738C29.2919 32.4736 28.4053 33.2178 28.6883 34.8544C28.8739 36.3522 29.5956 37.7056 30.4186 38.9485C31.4534 40.5306 32.7131 41.9741 34.209 43.1382C35.6693 44.3267 37.2065 45.2621 39.1411 45.3315C41.1169 45.4515 42.6634 44.4917 43.3139 42.6021C43.5426 42.0078 43.597 41.3705 43.7395 40.7556C44.0169 39.5202 44.3956 39.0835 45.0573 38.8473C46.7782 38.1743 50.2425 40.4257 51.8584 41.7266C53.4611 43.0407 54.4753 44.263 55.4107 45.907C56.4624 47.7535 56.8373 49.3975 56.7398 51.6676Z" fill="#FF5A3D"/>
</svg>
