<svg width="72" height="72" viewBox="0 0 72 72" fill="none" xmlns="http://www.w3.org/2000/svg">
<path d="M68.1116 58.4754C66.8498 58.6533 65.5396 58.2004 64.6014 57.7313C62.9515 56.8416 61.9971 55.9196 61.0913 54.3344C60.3148 53.0241 60.1045 51.8433 59.9913 50.3551C60.056 50.3551 60.2016 50.3389 60.2501 50.3389C60.9133 50.3066 61.5765 50.3551 62.2397 50.2257C64.0191 49.9022 65.1837 48.5919 65.5881 46.8773C66.0572 45.0333 65.9925 43.1083 65.9925 41.2319C65.944 38.5306 65.7661 35.8292 65.7661 33.1279C65.7175 30.7985 65.8308 28.356 64.8279 26.2046C64.5367 25.5252 63.922 25.0885 63.275 24.765C62.3691 24.2635 61.3501 24.0209 60.331 23.8429C57.8884 23.4385 55.3974 23.7135 52.9387 23.8429C48.1183 24.1988 43.2655 24.3929 38.4613 25.0076C37.5393 25.1208 36.6011 25.2988 35.8246 25.8649C34.4012 26.9163 33.7056 28.6795 33.3174 30.3456C32.638 33.1279 32.5895 35.991 32.5086 38.8379C32.4439 41.8305 32.3307 44.8553 32.6542 47.8479C32.913 49.789 33.285 51.4227 35.4364 51.908C37.3775 52.3933 39.3995 52.4256 41.3891 52.4256C43.7346 52.4094 46.0639 52.2639 48.3932 52.0536C49.9947 51.9242 51.5799 51.7624 53.1651 51.6168C53.3592 53.1535 53.9416 54.6579 54.9606 55.8064C56.7723 57.7151 59.3766 58.8636 61.9971 58.9768C63.2426 59.0577 64.5044 58.9121 65.7337 58.6533C66.5587 58.7827 67.3513 58.7342 68.1116 58.4754ZM60.1207 57.8445C58.0502 57.149 56.0282 56.0814 54.993 54.2858C54.5401 53.4771 54.2974 52.8624 54.1195 51.7786C54.0224 51.5036 54.2165 50.5169 53.246 50.711C50.302 51.0021 47.3418 51.2933 44.3816 51.4389C42.2141 51.5198 40.0303 51.6007 37.8628 51.3904C36.8437 51.3095 35.5496 51.1154 34.757 50.6625C33.6894 49.9831 33.5115 47.7346 33.4144 45.8259C33.3174 43.0598 33.3821 40.3099 33.463 37.5439C33.5438 34.9719 33.6409 32.9176 34.2071 30.5397C34.4982 29.1971 35.032 27.9839 35.6952 27.2075C36.3908 26.4149 36.7952 26.237 37.8466 26.0105C39.9495 25.6385 42.4244 25.4767 44.8831 25.2826C48.1668 25.0561 51.4343 24.8135 54.718 24.6194C58.0502 24.4253 61.7059 24.3282 63.8088 26.1884C64.6014 27.3046 64.844 29.5692 64.8602 31.5103C64.8926 33.2411 64.8926 34.9719 64.9573 36.7027C65.0382 38.8703 65.1514 41.054 65.1029 43.2216C65.0867 45.098 64.844 47.1523 64.0191 48.1714C63.3235 49.0449 62.4824 49.3037 61.5927 49.3846C60.7839 49.4816 58.9075 49.0449 59.0855 50.3713C59.1663 51.9727 59.5384 53.5741 60.4119 54.949C60.9457 55.8387 61.5765 56.7122 62.45 57.2945C63.3073 57.9092 64.3264 58.3783 65.394 58.5886C63.4368 58.5724 62.078 58.4269 60.1207 57.8445Z" fill="#FF5A3D"/>
<path d="M33.4631 47.8163C30.1632 47.784 26.8633 47.6384 23.5635 47.509C22.3017 47.3472 22.5929 48.431 22.4958 48.7383C22.3017 49.9515 22.0268 50.6633 21.4929 51.5853C20.2312 53.6558 17.6916 54.966 15.055 55.8557C12.5801 56.616 10.8169 56.8424 8.29348 57.0042C9.65225 56.713 10.9463 56.1307 12.0301 55.4028C13.1301 54.691 13.8903 53.6882 14.5373 52.6691C15.605 51.1 15.977 49.2883 16.0255 47.4928C16.1873 46.0046 13.7933 46.6031 12.758 46.5223C11.6095 46.4737 10.5096 46.2311 9.57137 45.2929C8.45524 44.1929 8.05084 41.9283 7.93761 39.8255C7.77585 37.3991 7.82438 34.9727 7.82438 32.5464C7.82438 30.6053 7.7435 28.6803 7.69498 26.7392C7.6141 24.5717 7.82438 22.0321 8.77875 20.738C11.4154 18.5543 16.1388 18.4572 20.4253 18.4896C24.6634 18.5381 28.9015 18.619 33.1234 18.6837C36.2938 18.7646 39.4966 18.7969 42.2303 19.1043C43.5891 19.3145 44.1067 19.4763 45.0611 20.3336C45.9508 21.1586 46.711 22.485 47.1478 23.9732C47.2448 24.2482 47.3257 24.5232 47.3904 24.7981C47.5037 24.782 47.6169 24.7496 47.7301 24.7334C48.0213 24.6849 48.2963 24.6849 48.5713 24.7334C48.4742 24.3937 48.3772 24.0379 48.2639 23.6982C47.6816 21.8541 46.6949 19.9292 44.8185 18.8293C43.7994 18.2631 42.57 18.1014 41.373 18.0205C35.1453 17.5837 28.9015 17.6646 22.6576 17.519C19.4871 17.5029 16.252 17.3411 13.1139 17.9234C11.8036 18.1661 10.5096 18.5058 9.34491 19.1204C8.53612 19.5248 7.75968 20.0425 7.41999 20.8189C6.23915 23.2776 6.51414 26.0113 6.54649 28.5995C6.6759 31.6243 6.57884 34.633 6.64355 37.6579C6.72443 39.7608 6.7406 41.9122 7.43616 43.9341C8.05084 45.8267 9.6199 47.2178 11.9169 47.4766C12.7742 47.5899 13.6315 47.4928 14.4726 47.4928C14.5535 47.4928 14.7153 47.4928 14.8123 47.4928C14.7476 49.1589 14.5212 50.5015 13.5991 51.9897C12.5154 53.8014 11.3345 54.9013 9.24785 55.9689C8.05084 56.5351 6.38473 57.1174 4.75098 56.988C5.7377 57.2307 6.77295 57.2468 7.79203 57.0851C9.39344 57.2954 11.011 57.3924 12.6286 57.2307C16.0093 56.9557 19.293 55.5322 21.5577 53.2999C22.8355 51.9573 23.4988 50.2427 23.6767 48.5281C25.731 48.6089 27.8015 48.6898 29.8558 48.7545C31.0852 48.8031 32.2984 48.8192 33.5278 48.8354C33.4307 48.5119 33.3984 48.156 33.4631 47.8163Z" fill="#FF5A3D"/>
</svg>
