<?xml version="1.0" encoding="UTF-8" standalone="no"?>
<svg
   xmlns:dc="http://purl.org/dc/elements/1.1/"
   xmlns:cc="http://creativecommons.org/ns#"
   xmlns:rdf="http://www.w3.org/1999/02/22-rdf-syntax-ns#"
   xmlns:svg="http://www.w3.org/2000/svg"
   xmlns="http://www.w3.org/2000/svg"
   xmlns:sodipodi="http://sodipodi.sourceforge.net/DTD/sodipodi-0.dtd"
   xmlns:inkscape="http://www.inkscape.org/namespaces/inkscape"
   inkscape:version="1.0 (4035a4f, 2020-05-01)"
   sodipodi:docname="Chat.svg"
   id="svg843"
   version="1.1"
   fill="none"
   viewBox="0 0 67 61"
   height="61"
   width="67">
  <metadata
     id="metadata849">
    <rdf:RDF>
      <cc:Work
         rdf:about="">
        <dc:format>image/svg+xml</dc:format>
        <dc:type
           rdf:resource="http://purl.org/dc/dcmitype/StillImage" />
      </cc:Work>
    </rdf:RDF>
  </metadata>
  <defs
     id="defs847" />
  <sodipodi:namedview
     inkscape:current-layer="svg843"
     inkscape:window-maximized="0"
     inkscape:window-y="23"
     inkscape:window-x="0"
     inkscape:cy="30.600299"
     inkscape:cx="33.5"
     inkscape:zoom="9.9701493"
     showgrid="false"
     id="namedview845"
     inkscape:window-height="1327"
     inkscape:window-width="1997"
     inkscape:pageshadow="2"
     inkscape:pageopacity="0"
     guidetolerance="10"
     gridtolerance="10"
     objecttolerance="10"
     borderopacity="1"
     bordercolor="#666666"
     pagecolor="#ffffff" />
  <path
     style="fill:#000000"
     id="path833"
     fill="white"
     d="M17.9817 38.5005L11.1118 45.3606V39.3104C11.1118 38.6808 10.6015 38.1636 9.9708 38.1636H7.02662C6.54246 38.1636 2.28975 37.9964 2.28975 33.4353L2.29236 7.01646C2.29236 6.53317 2.45985 2.28028 7.02924 2.28028H48.2035C48.6876 2.28812 52.9456 2.45531 52.9456 7.00863V10.6816C52.9456 11.3112 53.4585 11.8206 54.0892 11.8206C54.7199 11.8206 55.2328 11.3086 55.2328 10.6816V7.00863C55.2328 1.46258 50.6346 0 48.2035 0L7.02663 0.00261204C1.47058 0.00261204 0 4.58992 0 7.00924V33.4361C0 38.9821 4.59558 40.45 7.02663 40.45H8.82194V48.1174C8.82194 48.5798 9.10196 48.9925 9.52855 49.1728C9.66988 49.2276 9.81643 49.2564 9.97084 49.2564C10.264 49.2564 10.5597 49.144 10.7769 48.9194L19.599 40.1131C20.0465 39.6664 20.0465 38.9454 19.599 38.4987C19.1515 38.0519 18.4292 38.0519 17.9816 38.5013L17.9817 38.5005Z" />
  <path
     style="fill:#000000"
     id="path835"
     fill="white"
     d="M59.9688 14.6759H30.5606C28.1293 14.6759 23.5312 16.144 23.5312 21.6926V45.1802C23.5312 50.7288 28.1294 52.1968 30.5606 52.1968H39.3827C40.0134 52.1968 40.5263 51.6848 40.5263 51.0553C40.5263 50.4179 40.016 49.9085 39.3827 49.9085H30.5606C30.0764 49.9085 25.8237 49.7413 25.8237 45.1801V21.6898C25.8237 17.1365 30.0764 16.9615 30.5606 16.9615H59.9708C64.5402 16.9615 64.7077 21.2144 64.7155 21.6898V45.1774C64.7155 49.7386 60.4549 49.9058 59.9708 49.9058H54.0929C53.4622 49.9058 52.9493 50.4152 52.9493 51.0526V57.1054L46.0741 50.2426C45.6239 49.7959 44.9042 49.7959 44.4567 50.2426C44.0066 50.6893 44.0066 51.4103 44.4567 51.857L53.2788 60.6633C53.5039 60.888 53.7918 61.0003 54.0927 61.0003C54.2393 61.0003 54.3858 60.9716 54.5272 60.9141C54.9537 60.7338 55.2364 60.3185 55.2364 59.8587L55.2338 52.194H59.9706C62.4019 52.194 66.9999 50.7259 66.9999 45.1774L66.9973 21.6898C66.9973 19.2629 65.5265 14.6758 59.968 14.6758L59.9688 14.6759Z" />
  <path
     style="fill:#000000"
     id="path837"
     fill="white"
     d="M33.5004 28.7083H57.0304C57.6611 28.7083 58.174 28.1963 58.174 27.5667C58.174 26.9319 57.6611 26.4199 57.0304 26.4199L33.5004 26.4225C32.8697 26.4225 32.3516 26.9319 32.3516 27.5693C32.3516 28.1989 32.8697 28.7083 33.5004 28.7083V28.7083Z" />
  <path
     style="fill:#000000"
     id="path839"
     fill="white"
     d="M33.5004 34.5774H57.0304C57.6611 34.5774 58.174 34.0654 58.174 33.4385C58.174 32.8089 57.6611 32.2995 57.0304 32.2995L33.5004 32.2969C32.8697 32.2969 32.3516 32.8063 32.3516 33.4358C32.3516 34.0654 32.8697 34.5774 33.5004 34.5774V34.5774Z" />
  <path
     style="fill:#000000"
     id="path841"
     fill="white"
     d="M33.5004 40.4524H57.0304C57.6611 40.4524 58.174 39.943 58.174 39.3135C58.174 38.6839 57.6611 38.1667 57.0304 38.1667L33.5004 38.1641C32.8697 38.1641 32.3516 38.6813 32.3516 39.3109C32.3516 39.9404 32.8697 40.4524 33.5004 40.4524V40.4524Z" />
</svg>
