<?xml version="1.0" encoding="utf-8"?>
<!-- Generator: Adobe Illustrator 25.0.0, SVG Export Plug-In . SVG Version: 6.00 Build 0)  -->
<svg version="1.1" id="Layer_1" xmlns="http://www.w3.org/2000/svg" xmlns:xlink="http://www.w3.org/1999/xlink" x="0px" y="0px"
	 viewBox="0 0 17 16" style="enable-background:new 0 0 17 16;" xml:space="preserve">
<path d="M16.3,10.3c0.3,0,0.6,0.2,0.6,0.6v2c0,1.8-1.4,3.2-3.2,3.2H3.3c-1.8,0-3.2-1.4-3.2-3.2v-2c0-0.3,0.2-0.6,0.6-0.6
	s0.6,0.2,0.6,0.6v2c0,1.2,0.9,2.1,2.1,2.1h10.4c1.2,0,2.1-0.9,2.1-2.1v-2C15.8,10.5,16,10.3,16.3,10.3z M8.5,0C8.8,0,9,0.2,9.1,0.5
	l0,0v9.1l2.4-2.2c0.2-0.2,0.5-0.2,0.8,0l0,0c0.2,0.2,0.2,0.5,0,0.8l0,0l-3.3,3.1c0,0,0,0,0,0c0,0,0,0,0,0c0,0,0,0,0,0c0,0,0,0,0,0
	c0,0,0,0,0,0c0,0,0,0,0,0c0,0,0,0,0,0l0,0c0,0,0,0,0,0c0,0,0,0,0,0c0,0,0,0,0,0l0,0c0,0,0,0,0,0c0,0,0,0,0,0c0,0,0,0-0.1,0
	c0,0,0,0,0,0l0,0l0,0h0c0,0-0.1,0-0.1,0l0,0c-0.2,0-0.4,0-0.5-0.1L4.6,8.2C4.4,8,4.4,7.7,4.6,7.5c0.2-0.2,0.6-0.2,0.8,0l2.6,2.4
	l0-9.3C7.9,0.2,8.2,0,8.5,0z"/>
</svg>
