<svg width="44" height="34" viewBox="0 0 44 34" fill="none" xmlns="http://www.w3.org/2000/svg">
<path fill-rule="evenodd" clip-rule="evenodd" d="M0.5 2C0.5 1.17157 1.17157 0.5 2 0.5H42C42.8284 0.5 43.5 1.17157 43.5 2C43.5 2.82843 42.8284 3.5 42 3.5H2C1.17157 3.5 0.5 2.82843 0.5 2ZM0.5 17C0.5 16.1716 1.17157 15.5 2 15.5H42C42.8284 15.5 43.5 16.1716 43.5 17C43.5 17.8284 42.8284 18.5 42 18.5H2C1.17157 18.5 0.5 17.8284 0.5 17ZM0.5 32C0.5 31.1716 1.17157 30.5 2 30.5H42C42.8284 30.5 43.5 31.1716 43.5 32C43.5 32.8284 42.8284 33.5 42 33.5H2C1.17157 33.5 0.5 32.8284 0.5 32Z" fill="#101066"/>
</svg>
