<svg width="28" height="28" viewBox="0 0 28 28" fill="none" xmlns="http://www.w3.org/2000/svg">
<path fill-rule="evenodd" clip-rule="evenodd" d="M2.30593 28H25.6941C26.9671 28 28 26.9674 28 25.6941V2.30593C28 1.03288 26.9674 0 25.6941 0H2.30593C1.03287 0 0 1.03257 0 2.30593V25.6941C0 26.9671 1.03256 28 2.30593 28ZM10.7058 10.7062H14.6177V12.6751C15.1422 11.6236 16.6698 10.5002 18.6901 10.5002C22.5621 10.5002 23.8825 12.2502 23.8825 16.4066V23.8825H19.765V17.2811C19.765 15.0937 19.3375 13.8972 17.7409 13.8972C15.5824 13.8972 14.824 15.5377 14.824 17.2811V23.8825H10.7065V10.7062H10.7058ZM4.11782 23.8825H8.23533V10.7062H4.11782V23.8825ZM8.6883 6.17673C8.6883 7.56365 7.56334 8.68862 6.17642 8.68862C4.7895 8.68862 3.66453 7.56365 3.66453 6.17673C3.66453 4.78919 4.7895 3.66485 6.17642 3.66485C7.56334 3.66485 8.6883 4.78888 8.6883 6.17673Z" fill="white"/>
</svg>
