<svg width="28" height="29" viewBox="0 0 28 29" fill="none" xmlns="http://www.w3.org/2000/svg">
<path d="M14 3.14883C17.7382 3.14883 18.1809 3.16308 19.6571 3.23055C21.0221 3.29295 21.7634 3.5214 22.2568 3.71339C22.9102 3.96778 23.3767 4.27171 23.8665 4.7624C24.3564 5.25309 24.6598 5.72029 24.9137 6.3748C25.1055 6.86899 25.3335 7.61151 25.3958 8.97871C25.4632 10.4575 25.4774 10.9009 25.4774 14.6453C25.4774 18.3897 25.4632 18.8332 25.3958 20.3119C25.3335 21.6791 25.1055 22.4216 24.9137 22.9158C24.6598 23.5704 24.3564 24.0376 23.8665 24.5282C23.3767 25.0189 22.9102 25.3229 22.2568 25.5772C21.7634 25.7692 21.0221 25.9977 19.6571 26.0601C18.1811 26.1276 17.7384 26.1418 14 26.1418C10.2616 26.1418 9.81882 26.1276 8.3428 26.0601C6.97781 25.9977 6.23652 25.7692 5.7432 25.5772C5.08972 25.3229 4.62329 25.0189 4.13342 24.5282C3.64354 24.0376 3.34011 23.5704 3.0862 22.9158C2.89447 22.4216 2.6664 21.6791 2.6041 20.3119C2.53674 18.8332 2.52252 18.3897 2.52252 14.6453C2.52252 10.9009 2.53674 10.4575 2.6041 8.97876C2.6664 7.61151 2.89447 6.86899 3.0862 6.3748C3.34011 5.72029 3.64354 5.25309 4.13342 4.7624C4.62329 4.27171 5.08972 3.96778 5.7432 3.71339C6.23652 3.5214 6.97781 3.29295 8.34274 3.23055C9.81904 3.16308 10.2618 3.14883 14 3.14883ZM14 0.62207C10.1978 0.62207 9.72107 0.638213 8.22782 0.706459C6.73763 0.774593 5.71997 1.01162 4.82941 1.3583C3.90879 1.71667 3.12804 2.19617 2.34974 2.97576C1.57144 3.75536 1.09273 4.5374 0.734954 5.45955C0.388845 6.35159 0.152215 7.37093 0.0841932 8.86359C0.0160606 10.3593 0 10.8368 0 14.6453C0 18.4538 0.0160606 18.9314 0.0841932 20.4271C0.152215 21.9197 0.388845 22.9391 0.734954 23.8311C1.09273 24.7532 1.57144 25.5353 2.34974 26.3149C3.12804 27.0945 3.90879 27.574 4.82941 27.9323C5.71997 28.279 6.73763 28.5161 8.22782 28.5842C9.72107 28.6524 10.1978 28.6685 14 28.6685C17.8022 28.6685 18.2789 28.6524 19.7721 28.5842C21.2623 28.5161 22.28 28.279 23.1705 27.9323C24.0912 27.574 24.8719 27.0945 25.6502 26.3149C26.4285 25.5353 26.9072 24.7532 27.265 23.8311C27.6111 22.9391 27.8477 21.9197 27.9158 20.4271C27.9839 18.9314 28 18.4538 28 14.6453C28 10.8368 27.9839 10.3593 27.9158 8.86359C27.8477 7.37093 27.6111 6.35159 27.265 5.45955C26.9072 4.5374 26.4285 3.75536 25.6502 2.97576C24.8719 2.19617 24.0912 1.71667 23.1705 1.3583C22.28 1.01162 21.2623 0.774593 19.7721 0.706459C18.2789 0.638213 17.8022 0.62207 14 0.62207ZM14 7.44418C10.0295 7.44418 6.81076 10.6683 6.81076 14.6453C6.81076 18.6224 10.0295 21.8465 14 21.8465C17.9704 21.8465 21.1892 18.6224 21.1892 14.6453C21.1892 10.6683 17.9704 7.44418 14 7.44418ZM14 19.3198C11.4227 19.3198 9.33328 17.2269 9.33328 14.6453C9.33328 12.0637 11.4227 9.97089 14 9.97089C16.5773 9.97089 18.6667 12.0637 18.6667 14.6453C18.6667 17.2269 16.5773 19.3198 14 19.3198ZM23.1532 7.15968C23.1532 8.08907 22.4011 8.8425 21.4732 8.8425C20.5454 8.8425 19.7932 8.08907 19.7932 7.15968C19.7932 6.23029 20.5454 5.47692 21.4732 5.47692C22.4011 5.47692 23.1532 6.23029 23.1532 7.15968Z" fill="white"/>
</svg>
