<?xml version="1.0" encoding="utf-8"?>
<!-- Generator: Adobe Illustrator 25.0.0, SVG Export Plug-In . SVG Version: 6.00 Build 0)  -->
<svg version="1.1" id="Layer_1" xmlns="http://www.w3.org/2000/svg" xmlns:xlink="http://www.w3.org/1999/xlink" x="0px" y="0px"
	 viewBox="0 0 23 22" style="enable-background:new 0 0 23 22;" xml:space="preserve">
<path d="M22,0h-6.6c-0.6,0-1,0.5-1,1c0,0.6,0.5,1,1,1h4.1l-10,10c-0.4,0.4-0.4,1.1,0,1.5c0.2,0.2,0.5,0.3,0.7,0.3
	c0.3,0,0.5-0.1,0.7-0.3l10-10v4.1c0,0.6,0.5,1,1,1c0.6,0,1-0.5,1-1V1C23,0.5,22.5,0,22,0z"/>
<path d="M17.7,8.7c-0.6,0-1,0.5-1,1v10.2H2.6V5.8h10.8c0.6,0,1-0.5,1-1s-0.5-1-1-1H1.5c-0.6,0-1,0.5-1,1V21c0,0.6,0.5,1,1,1h16.2
	c0.6,0,1-0.5,1-1V9.7C18.7,9.1,18.3,8.7,17.7,8.7z"/>
</svg>
