<?xml version="1.0" encoding="utf-8"?>
<!-- Generator: Adobe Illustrator 25.0.0, SVG Export Plug-In . SVG Version: 6.00 Build 0)  -->
<svg version="1.1" id="Layer_1" xmlns="http://www.w3.org/2000/svg" xmlns:xlink="http://www.w3.org/1999/xlink" x="0px" y="0px"
	 viewBox="0 0 24 23" style="enable-background:new 0 0 24 23;" xml:space="preserve">
<path d="M0.6,13.6c-0.1,0-0.1,0.1-0.1,0.2C0.5,13.7,0.6,13.6,0.6,13.6z"/>
<path d="M23.9,14.9c0,0-4.1-3.9-5.2-4.9c-0.2-0.1-0.4-0.1-0.4,0.1l-1.9,5.2c-0.1,0.2,0.1,0.4,0.3,0.4c1.6-0.1,7.2-0.3,7.2-0.3
	C24,15.4,24.1,15.1,23.9,14.9z"/>
<path d="M6.6,7.5C6.4,7.7,6.1,7.6,6,7.3L4.6,0.3C4.6,0.1,4.8-0.1,5,0C5,0,9.5,3,11,4c0.2,0.2,0.2,0.5,0,0.6L6.6,7.5z"/>
<path d="M19.6,1.4C19.6,1.4,19.6,1.4,19.6,1.4c0-0.1,0-0.1,0-0.1v0c0,0,0,0,0,0c0,0,0,0,0,0l0,0l0,0c0,0,0,0,0,0h0c0,0,0,0,0,0h0
	c0,0,0,0,0,0s0,0-0.1,0L0.6,13.6c-0.1,0-0.1,0.1-0.1,0.2c0,0,0,0,0,0.1v0c0,0.1,0.1,0.1,0.1,0.2c0,0,0,0,0.1,0L8.4,15
	c0,0,0.1,0,0.1,0c0,0,0.1,0.1,0.1,0.1l2.7,7.4c0,0,0,0,0,0c0,0,0,0,0,0l0,0c0,0,0,0,0,0h0h0h0h0h0h0h0h0l0,0c0,0,0,0,0-0.1l3.3-9
	L19.6,1.4z"/>
</svg>
