<?xml version="1.0" encoding="utf-8"?>
<!-- Generator: Adobe Illustrator 25.0.0, SVG Export Plug-In . SVG Version: 6.00 Build 0)  -->
<svg version="1.1" id="Layer_1" xmlns="http://www.w3.org/2000/svg" xmlns:xlink="http://www.w3.org/1999/xlink" x="0px" y="0px"
	 viewBox="0 0 91 74" style="enable-background:new 0 0 91 74;" xml:space="preserve">
<path d="M1.9,10.1h-1c-0.5,0-0.7-0.2-0.7-0.5c0-0.3,0.1-0.4,0.5-0.6c0.9-0.5,2.1-1.9,2.8-3.5C3.7,5.2,3.9,5,4.2,5
	c0.4,0,0.4,0.2,0.4,0.8V9h4.1c0.6,0,0.8,0.1,0.8,0.6c0,0.4-0.3,0.6-0.8,0.6H4.6v7.5c0,1.5,0.1,1.8,0.3,2.5c0.3,0.7,1,1.2,1.9,1.2
	c0.8,0,1.7-0.4,2.6-1.2c0.5-0.4,0.6-0.5,0.8-0.5c0.1,0,0.2,0,0.4,0.2c0.1,0.1,0.2,0.2,0.2,0.4c0,0.3-0.2,0.6-0.6,1.1
	c-1.3,1.3-2.6,1.9-4.1,1.9c-0.7,0-1.3,0-1.9-0.4C3.5,22.4,3,22,2.6,21.4c-0.6-0.9-0.7-1.7-0.7-3.6V10.1z"/>
<path d="M16.8,19.1c0,2,0.1,2.4,0.9,2.4l0.4,0c0.3,0,0.5,0.2,0.5,0.5c0,0.4-0.3,0.5-0.8,0.5h-5c-0.5,0-0.8-0.2-0.8-0.5
	c0-0.3,0.2-0.5,0.4-0.5l0.3,0c1-0.1,1.2-0.5,1.2-2.4V5.3c0-1.3-0.2-1.7-0.7-1.9l-0.5-0.2c-0.4-0.1-0.5-0.3-0.5-0.5
	c0-0.4,0.2-0.5,0.8-0.7c0.8-0.2,1.5-0.6,2.3-1.2c0.3-0.2,0.5-0.3,0.7-0.3c0,0,0.2,0,0.3,0.1c0.3,0.1,0.4,0.3,0.4,0.6v10.9
	c0.8-1.1,1.3-1.5,2-2.2c1.2-1,2.5-1.5,3.8-1.5c1.5,0,2.9,0.7,3.6,1.8c0.5,0.8,0.6,1.7,0.6,3.6V19l0,0.7c-0.1,1.2,0.3,1.6,1.2,1.7
	l0.4,0c0.3,0,0.4,0.2,0.4,0.5c0,0.4-0.2,0.5-0.7,0.5h-4.9c-0.5,0-0.7-0.2-0.7-0.5c0-0.3,0.2-0.5,0.4-0.5l0.3,0c0,0,0.1,0,0.2-0.1
	c0.2-0.1,0.4-0.2,0.5-0.4c0.2-0.3,0.2-0.8,0.2-1.9v-4.5c0-1.5,0-1.8-0.4-2.5c-0.4-0.8-1.4-1.3-2.5-1.3c-1,0-1.9,0.4-2.8,1.2
	c-0.6,0.6-0.9,0.9-1.6,2L16.8,19.1L16.8,19.1z"/>
<path d="M32.5,16c0.2,1.8,0.5,2.6,1.2,3.5c0.8,1.1,1.9,1.7,3.3,1.7c1.6,0,2.7-0.6,4.1-2.3c0.2-0.2,0.3-0.3,0.4-0.3
	c0.3,0,0.5,0.2,0.5,0.5c0,0.3-0.2,0.7-0.6,1.3c-1.3,1.8-3.1,2.8-5.3,2.8c-3.8,0-6.5-2.9-6.5-7c0-4.3,2.9-7.4,6.9-7.4
	c2.7,0,5.3,2.1,5.3,4.3c0,0.7-0.2,0.9-1.3,1.1L32.5,16z M32.5,15l5.6-1.7c0.8-0.2,1-0.5,1-0.9c0-1.3-1.4-2.5-2.8-2.5
	c-1.2,0-2.1,0.5-2.8,1.6C32.9,12.4,32.7,13.1,32.5,15z"/>
<path d="M1.9,32.7h-1c-0.5,0-0.7-0.2-0.7-0.5c0-0.3,0.1-0.4,0.5-0.6c0.9-0.5,2.1-1.9,2.8-3.5c0.2-0.4,0.4-0.6,0.7-0.6
	c0.4,0,0.4,0.2,0.4,0.8v3.2h4.1c0.6,0,0.8,0.1,0.8,0.6c0,0.4-0.3,0.6-0.8,0.6H4.6v7.5c0,1.5,0.1,1.8,0.3,2.5c0.3,0.7,1,1.2,1.9,1.2
	c0.8,0,1.7-0.4,2.6-1.2C9.9,42.1,10,42,10.3,42c0.1,0,0.2,0,0.4,0.2c0.1,0.1,0.2,0.2,0.2,0.4c0,0.3-0.2,0.6-0.6,1.1
	C8.9,45,7.5,45.6,6,45.6c-0.7,0-1.3,0-1.9-0.4c-0.6-0.3-1.1-0.7-1.5-1.3c-0.6-0.9-0.7-1.7-0.7-3.6V32.7z"/>
<path d="M16.9,34.3c1.4-2.2,2.9-3.2,4.3-3.2c1.2,0,2.4,1,2.4,2.1c0,0.8-0.6,1.4-1.5,1.4c-0.4,0-0.6-0.2-1-0.6
	c-0.1-0.2-0.2-0.3-0.3-0.4c-0.3-0.3-0.6-0.5-0.9-0.5c-0.4,0-0.8,0.2-1.5,0.9c-0.5,0.6-0.9,1.2-1.2,1.7c-0.3,0.7-0.3,0.9-0.3,2.3v3.7
	c0,1.8,0.3,2.3,1.3,2.4l0.2,0c0.3,0,0.4,0.2,0.4,0.5c0,0.4-0.3,0.5-0.8,0.5h-5.2c-0.5,0-0.8-0.2-0.8-0.5c0-0.3,0.2-0.5,0.4-0.5
	l0.2,0l0.7-0.1c0.5,0,0.7-0.9,0.7-2.3v-5.8c0-1.3-0.2-1.7-0.7-1.9L13,33.7c-0.3-0.1-0.5-0.3-0.5-0.5c0-0.4,0.2-0.5,0.8-0.7
	c0.7-0.2,1.5-0.6,2.3-1.2c0.3-0.2,0.5-0.3,0.6-0.3c0.4,0,0.7,0.3,0.7,0.6V34.3z"/>
<path d="M26.9,38.4c0.2,1.8,0.5,2.6,1.2,3.5c0.8,1.1,1.9,1.7,3.3,1.7c1.6,0,2.7-0.6,4.1-2.3c0.2-0.2,0.3-0.3,0.4-0.3
	c0.3,0,0.5,0.2,0.5,0.5c0,0.3-0.2,0.7-0.6,1.3c-1.3,1.8-3.1,2.8-5.3,2.8c-3.8,0-6.5-2.9-6.5-7c0-4.3,2.9-7.4,6.9-7.4
	c2.7,0,5.3,2.1,5.3,4.3c0,0.7-0.2,0.9-1.3,1.1L26.9,38.4z M26.9,37.5l5.6-1.7c0.8-0.2,1-0.5,1-0.9c0-1.3-1.4-2.5-2.8-2.5
	c-1.2,0-2.1,0.5-2.8,1.6C27.3,34.9,27.1,35.6,26.9,37.5z"/>
<path d="M45.8,42L49,35c0.4-0.9,0.6-1.5,0.6-1.8c0-0.4-0.2-0.6-1-0.7l-0.3,0c-0.3,0-0.4-0.2-0.4-0.5c0-0.4,0.2-0.5,0.7-0.5h3.6
	c0.6,0,0.7,0,0.7,0.5c0,0.3-0.2,0.4-0.4,0.5l-0.3,0c-0.5,0.1-0.7,0.2-1,0.5c-0.3,0.3-0.7,1-1.2,1.9l-4.3,9.5
	c-0.3,0.7-0.5,0.9-0.8,0.9c-0.3,0-0.6-0.3-0.9-1L40.1,35c-0.2-0.4-0.4-1.1-0.6-1.4c-0.4-0.7-0.8-0.9-1.5-1.1l-0.3,0
	c-0.3,0-0.4-0.2-0.4-0.5c0-0.4,0.2-0.5,0.7-0.5h5.2c0.6,0,0.7,0,0.7,0.5c0,0.3-0.2,0.4-0.4,0.5l-0.2,0c-0.6,0.2-0.7,0.2-0.7,0.7
	c0,0.3,0.1,0.7,0.6,1.7L45.8,42z"/>
<path d="M53.1,38.3c0-4.2,3-7.2,7.1-7.2c4.4,0,7.3,3,7.3,7.4c0,4.2-2.9,7.1-7.1,7.1c-4.2,0-7-2.7-7.3-6.8
	C53.1,38.6,53.1,38.4,53.1,38.3z M56.1,38.8c0.4,3.5,2.1,5.6,4.4,5.6c2.5,0,3.9-2,3.9-5.2c0-4.2-1.8-6.9-4.5-6.9
	c-2.4,0-3.9,2-3.9,5.2C56,37.9,56.1,38.3,56.1,38.8z"/>
<path d="M73.5,34.3c1.4-2.2,2.9-3.2,4.3-3.2c1.2,0,2.4,1,2.4,2.1c0,0.8-0.6,1.4-1.5,1.4c-0.4,0-0.6-0.2-1-0.6
	c-0.1-0.2-0.2-0.3-0.3-0.4c-0.3-0.3-0.6-0.5-0.9-0.5c-0.4,0-0.8,0.2-1.5,0.9c-0.5,0.6-0.9,1.2-1.2,1.7c-0.3,0.7-0.3,0.9-0.3,2.3v3.7
	c0,1.8,0.3,2.3,1.3,2.4l0.2,0c0.3,0,0.4,0.2,0.4,0.5c0,0.4-0.3,0.5-0.8,0.5h-5.2c-0.5,0-0.8-0.2-0.8-0.5c0-0.3,0.2-0.5,0.4-0.5
	l0.2,0l0.7-0.1c0.5,0,0.7-0.9,0.7-2.3v-5.8c0-1.3-0.2-1.7-0.7-1.9l-0.6-0.2c-0.3-0.1-0.5-0.3-0.5-0.5c0-0.4,0.2-0.5,0.8-0.7
	c0.7-0.2,1.5-0.6,2.3-1.2c0.3-0.2,0.5-0.3,0.6-0.3c0.4,0,0.7,0.3,0.7,0.6V34.3z"/>
<path d="M4.7,70.1c0,1.9,0.2,2.3,1.4,2.4l0.3,0.1c0.3,0,0.4,0.2,0.4,0.5c0,0.4-0.3,0.5-0.8,0.5H0.7c-0.5,0-0.7-0.2-0.7-0.5
	c0-0.2,0-0.4,0.2-0.4l0.6,0L1,72.5c0.4-0.1,0.7-0.5,0.8-1l0.1-0.7l0-0.7l0-0.6V58.2c0-1.3-0.2-1.7-0.7-1.9l-0.6-0.1
	c-0.2-0.1-0.5-0.3-0.5-0.5c0-0.4,0.2-0.5,0.8-0.7c0.7-0.2,1.5-0.6,2.3-1.2c0.3-0.2,0.5-0.3,0.7-0.3c0.4,0,0.7,0.4,0.7,0.7v1.8
	c0.4-0.4,0.8-0.7,1-0.9c1.2-1.1,2.7-1.6,4.2-1.6c3.6,0,6.2,3,6.2,7c0,4.3-2.9,7.4-6.7,7.4c-1,0-1.9-0.2-2.8-0.7
	c-0.8-0.4-1.2-0.6-1.9-1.5V70.1z M4.7,57.9v4.5c0,2.5,1.7,4.1,4.4,4.1c2.6,0,4.4-2.1,4.4-5.2c0-3.3-2.3-5.9-5.1-5.9
	c-1.2,0-2.4,0.6-3.1,1.5C5.1,57.2,4.9,57.5,4.7,57.9z"/>
<path d="M22.2,56.7c1.4-2.2,2.9-3.2,4.3-3.2c1.2,0,2.4,1,2.4,2.1c0,0.8-0.6,1.4-1.5,1.4c-0.4,0-0.6-0.2-1-0.6
	c-0.1-0.2-0.2-0.3-0.3-0.4c-0.3-0.3-0.6-0.5-0.9-0.5c-0.4,0-0.8,0.2-1.5,0.9c-0.5,0.6-0.9,1.2-1.2,1.7c-0.3,0.7-0.3,0.9-0.3,2.3v3.7
	c0,1.8,0.3,2.3,1.3,2.4l0.2,0c0.3,0,0.4,0.2,0.4,0.5c0,0.4-0.3,0.5-0.8,0.5h-5.2c-0.5,0-0.8-0.2-0.8-0.5c0-0.3,0.2-0.5,0.4-0.5
	l0.2,0l0.7-0.1c0.5,0,0.7-0.9,0.7-2.3v-5.9c0-1.3-0.2-1.7-0.7-1.9l-0.6-0.2c-0.3-0.1-0.5-0.3-0.5-0.5c0-0.4,0.2-0.5,0.8-0.7
	c0.7-0.2,1.5-0.6,2.3-1.2c0.3-0.2,0.5-0.3,0.6-0.3c0.4,0,0.7,0.3,0.7,0.6V56.7z"/>
<path d="M29.3,60.8c0-4.2,3-7.2,7.1-7.2c4.4,0,7.3,3,7.3,7.4c0,4.2-2.9,7.1-7.1,7.1c-4.2,0-7-2.7-7.3-6.8
	C29.3,61.1,29.3,60.9,29.3,60.8z M32.3,61.3c0.4,3.5,2.1,5.6,4.4,5.6c2.5,0,3.9-2,3.9-5.2c0-4.2-1.8-6.9-4.5-6.9
	c-2.4,0-3.9,2-3.9,5.2C32.2,60.4,32.3,60.8,32.3,61.3z"/>
<path d="M47,66.7v-8.4c0-1.3-0.2-1.7-0.7-1.9l-0.5-0.2c-0.3-0.1-0.5-0.3-0.5-0.5c0-0.4,0.2-0.5,0.8-0.7c0.7-0.2,1.5-0.6,2.3-1.2
	c0.3-0.2,0.5-0.3,0.7-0.3c0.4,0,0.7,0.3,0.7,0.6v11.7c0,2.6-0.3,4.1-1.3,5.7c-1,1.7-2.3,2.5-3.8,2.5c-1.2,0-2.3-0.9-2.3-1.8
	c0-0.6,0.3-0.9,0.8-0.9c0.4,0,0.7,0.3,1,0.9c0.2,0.5,0.4,0.7,0.8,0.7c0.4,0,0.8-0.2,1.2-0.7c0.6-0.9,0.9-2,0.9-4.1V66.7z M48.1,47.6
	c1,0,1.8,0.9,1.8,1.9c0,1-0.8,1.8-1.9,1.8c-1,0-1.8-0.8-1.8-1.8C46.3,48.5,47.1,47.6,48.1,47.6z"/>
<path d="M55.2,60.9c0.2,1.8,0.5,2.6,1.2,3.5c0.8,1.1,1.9,1.7,3.3,1.7c1.6,0,2.7-0.6,4.1-2.3c0.2-0.2,0.3-0.3,0.4-0.3
	c0.3,0,0.5,0.2,0.5,0.5c0,0.3-0.2,0.7-0.6,1.3C62.9,67.1,61,68,58.8,68c-3.8,0-6.5-2.9-6.5-7c0-4.3,2.9-7.4,6.9-7.4
	c2.7,0,5.3,2.1,5.3,4.3c0,0.7-0.2,0.9-1.3,1.1L55.2,60.9z M55.2,60l5.6-1.7c0.8-0.2,1-0.5,1-0.9c0-1.3-1.4-2.5-2.8-2.5
	c-1.2,0-2.1,0.5-2.8,1.6C55.6,57.4,55.4,58.1,55.2,60z"/>
<path d="M76,56.2c-0.2-0.9-1-1.6-2.2-1.6c-2.4,0-4.1,2.4-4.1,5.6c0,3.4,1.7,5.6,4.4,5.6c1.5,0,2.8-0.7,3.9-2
	c0.6-0.7,0.6-0.8,0.9-0.8c0.1,0,0.2,0,0.4,0.2c0.1,0.1,0.2,0.2,0.2,0.4c0,0.4-0.7,1.6-1.6,2.4c-1.3,1.3-2.9,1.9-4.6,1.9
	c-3.7,0-6.4-2.7-6.4-6.8c0-4.4,3-7.7,7-7.7c2.5,0,4.8,1.5,4.8,3.1c0,0.7-0.5,1.3-1.2,1.3c-0.7,0-1.1-0.5-1.2-1.2L76,56.2z"/>
<path d="M82,55.1h-1c-0.5,0-0.7-0.2-0.7-0.5c0-0.3,0.1-0.4,0.5-0.6c0.9-0.5,2.1-1.9,2.8-3.5c0.2-0.4,0.4-0.6,0.7-0.6
	c0.4,0,0.4,0.2,0.4,0.8v3.2h4.1c0.6,0,0.8,0.1,0.8,0.6c0,0.4-0.3,0.6-0.8,0.6h-4.1v7.5c0,1.5,0.1,1.8,0.3,2.5c0.3,0.7,1,1.2,1.9,1.2
	c0.8,0,1.7-0.4,2.6-1.2c0.5-0.4,0.6-0.5,0.8-0.5c0.1,0,0.2,0,0.4,0.2c0.1,0.1,0.2,0.2,0.2,0.4c0,0.3-0.2,0.6-0.6,1.1
	c-1.3,1.3-2.6,1.9-4.1,1.9c-0.7,0-1.3,0-1.9-0.4c-0.6-0.3-1.1-0.7-1.5-1.3c-0.6-0.9-0.7-1.7-0.7-3.6L82,55.1L82,55.1z"/>
</svg>
