<svg width="270" height="112" viewBox="0 0 270 112" fill="none" xmlns="http://www.w3.org/2000/svg">
<path d="M269.521 28.9864L255.988 29.5178C255.902 29.5201 255.818 29.5014 255.741 29.4633C255.664 29.4252 255.598 29.3689 255.548 29.2991C255.497 29.2294 255.465 29.1483 255.452 29.063C255.44 28.9776 255.449 28.8905 255.477 28.8092L259.1 19.0022C259.13 18.921 259.179 18.8484 259.243 18.7908C259.307 18.7332 259.385 18.6923 259.468 18.6717C259.551 18.651 259.638 18.6513 259.722 18.6724C259.805 18.6935 259.882 18.7349 259.946 18.7928C262.116 20.8541 269.841 28.1007 269.841 28.1007C269.912 28.1698 269.962 28.2584 269.984 28.3556C270.007 28.4529 270 28.5545 269.967 28.6483C269.933 28.7422 269.873 28.824 269.794 28.884C269.715 28.944 269.62 28.9796 269.521 28.9864ZM245.582 8.67982C245.681 8.61185 245.762 8.52058 245.818 8.41394C245.874 8.30729 245.903 8.1885 245.903 8.06789C245.903 7.94728 245.874 7.82849 245.818 7.72184C245.762 7.6152 245.681 7.52393 245.582 7.45596L234.411 0.0483361C234.327 -0.00769489 234.228 -0.0373386 234.127 -0.0368595C234.026 -0.0363805 233.928 -0.00580006 233.844 0.0510281C233.761 0.107856 233.696 0.188389 233.657 0.282479C233.619 0.376568 233.609 0.480004 233.629 0.579752L236.198 13.7041C236.226 13.8195 236.281 13.9266 236.358 14.0167C236.434 14.1069 236.531 14.1776 236.64 14.223C236.748 14.2685 236.866 14.2875 236.984 14.2785C237.101 14.2695 237.215 14.2327 237.315 14.1711L245.582 8.67982ZM261.733 2.68931C261.733 2.68931 261.733 2.59269 261.733 2.54438C261.726 2.51262 261.726 2.47953 261.733 2.44776V2.35114L261.637 2.25452H261.446C261.446 2.25452 261.446 2.25452 261.35 2.25452C261.298 2.24155 261.243 2.24155 261.191 2.25452L226.08 25.7496C226.016 25.7929 225.963 25.8501 225.925 25.9171C225.886 25.984 225.863 26.0588 225.857 26.136C225.849 26.184 225.849 26.233 225.857 26.281C225.878 26.344 225.911 26.4022 225.955 26.452C225.999 26.5017 226.052 26.5422 226.112 26.5708H226.272L240.779 28.3583C240.872 28.3721 240.96 28.411 241.034 28.4711C241.108 28.5289 241.163 28.6072 241.194 28.6965L246.237 42.5294V42.626H246.604C246.63 42.6329 246.657 42.6329 246.684 42.626C246.716 42.5813 246.743 42.5326 246.763 42.4811L253.019 25.508L261.733 2.68931Z"/>
<path d="M35.2063 46.346H23.54V78.9074H11.6663V46.346H0V35.605H35.2063V46.346Z"/>
<path d="M54.7564 65.6703H50.4793V78.9074H38.6375V35.605H57.2621C66.5185 35.605 73.2214 41.8854 73.2214 50.9355C73.2677 53.4029 72.6605 55.838 71.4625 57.9894C70.2646 60.1409 68.5193 61.9307 66.4068 63.1742L75.0088 78.9074H61.7307L54.7564 65.6703ZM50.4793 55.6217H55.8576C59.1772 55.6217 61.0763 53.6087 61.0763 50.9033C61.0763 48.1979 59.1931 46.2172 55.8576 46.2172H50.4793V55.6217Z"/>
<path d="M106.577 68.5689V78.9074H78.5839V35.605H106.05V45.9273H90.3618V52.3687H104.454V62.1597H90.3618V68.6011L106.577 68.5689Z"/>
<path d="M152.795 35.605L136.357 78.9074H125.345L108.523 35.605H122.025L130.867 62.5301L139.421 35.605H152.795Z"/>
<path d="M173.638 80.0183C159.833 80.0183 150.018 70.5011 150.018 57.264C150.018 44.0269 159.865 34.5098 173.669 34.5098C187.474 34.5098 197.257 43.9947 197.257 57.264C197.257 70.5333 187.442 80.0183 173.669 80.0183H173.638ZM173.638 68.923C175.152 68.9603 176.657 68.682 178.06 68.1055C179.463 67.5289 180.733 66.6666 181.79 65.5723C182.848 64.4781 183.67 63.1754 184.206 61.7459C184.742 60.3163 184.98 58.7906 184.905 57.264C184.905 54.2402 183.714 51.3403 181.595 49.2021C179.476 47.064 176.602 45.8627 173.606 45.8627C170.609 45.8627 167.735 47.064 165.616 49.2021C163.497 51.3403 162.306 54.2402 162.306 57.264C162.254 58.7902 162.51 60.3112 163.058 61.7346C163.606 63.1579 164.436 64.4541 165.495 65.5444C166.555 66.6347 167.823 67.4964 169.223 68.0772C170.622 68.658 172.124 68.9457 173.638 68.923Z"/>
<path d="M217.558 65.6703H213.264V78.9074H201.439V35.605H220.047C229.304 35.605 236.006 41.8854 236.006 50.9355C236.053 53.4029 235.446 55.838 234.248 57.9894C233.05 60.1409 231.304 61.9307 229.192 63.1742L237.794 78.9074H224.596L217.558 65.6703ZM213.264 55.6217H218.643C221.962 55.6217 223.861 53.6087 223.861 50.9033C223.861 48.1979 221.978 46.2172 218.643 46.2172H213.248L213.264 55.6217Z"/>
<path d="M11.2673 17.8588H7.54876V28.2456H3.75044V17.8588H0V14.4932H11.1715L11.2673 17.8588Z"/>
<path d="M24.2262 14.4932V28.2939H20.4279V22.9475H16.3104V28.2456H12.5121V14.4932H16.3104V19.4692H20.4279V14.4932H24.2262Z"/>
<path d="M35.1108 24.9443V28.1651H26.2374V14.4932H34.999V17.7139H29.9878V19.7429H34.4883V22.867H29.9878V24.9282L35.1108 24.9443Z"/>
<path d="M121.291 105.204V111.34H104.677V85.5742H120.972V91.7902H111.715V95.5745H120.014V101.372H111.715V105.221L121.291 105.204Z"/>
<path d="M170.174 92.0317H163.264V111.356H156.21V92.0317H149.299V85.5903H170.174V92.0317Z"/>
<path d="M31.9184 95.0108C31.9434 96.2586 31.715 97.4984 31.2474 98.6538C30.7797 99.8092 30.0827 100.856 29.1991 101.729C28.3156 102.603 27.2643 103.284 26.1098 103.732C24.9554 104.181 23.7223 104.386 22.4864 104.335H18.7041V111.42H11.666V85.6546H22.5184C23.7555 85.6034 24.9899 85.8094 26.1449 86.2597C27.2999 86.7101 28.3508 87.3953 29.2323 88.2727C30.1138 89.1501 30.8071 90.201 31.2692 91.3601C31.7313 92.5192 31.9523 93.7619 31.9184 95.0108ZM24.7367 95.0108C24.7763 94.5889 24.7253 94.1634 24.5871 93.7632C24.449 93.363 24.2269 92.9976 23.936 92.6919C23.6452 92.3862 23.2924 92.1474 22.9018 91.9918C22.5112 91.8362 22.0919 91.7674 21.6725 91.7901H18.7041V98.0705H21.6725C22.0775 98.0909 22.4824 98.026 22.8612 97.8799C23.24 97.7338 23.5845 97.5097 23.8727 97.2219C24.161 96.9341 24.3867 96.5888 24.5354 96.2081C24.6842 95.8274 24.7527 95.4197 24.7367 95.0108Z"/>
<path d="M43.2499 103.481H40.6965V111.34H33.6903V85.5742H44.6863C50.1763 85.5742 54.1502 89.2941 54.1502 94.6566C54.1798 96.1204 53.8211 97.5657 53.1112 98.8426C52.4013 100.12 51.366 101.182 50.1125 101.919L55.1716 111.259H47.3675L43.2499 103.481ZM40.6965 97.523H43.8883C44.2825 97.5755 44.6832 97.5423 45.0637 97.4259C45.4442 97.3095 45.7956 97.1125 46.0946 96.848C46.3935 96.5835 46.633 96.2576 46.7971 95.8922C46.9612 95.5268 47.0461 95.1302 47.0461 94.7291C47.0461 94.3279 46.9612 93.9313 46.7971 93.5659C46.633 93.2005 46.3935 92.8747 46.0946 92.6102C45.7956 92.3457 45.4442 92.1486 45.0637 92.0322C44.6832 91.9158 44.2825 91.8827 43.8883 91.9351H40.6965V97.523Z"/>
<path d="M70.0453 112C61.8742 112 56.0171 106.348 56.0171 98.5052C56.0171 90.6628 61.8742 84.9944 70.0453 84.9944C78.2165 84.9944 84.0417 90.6306 84.0417 98.5052C84.0417 106.38 78.2006 112 70.0453 112ZM70.0453 105.414C71.4046 105.439 72.7407 105.056 73.8832 104.313C75.0258 103.569 75.9232 102.499 76.461 101.239C76.9989 99.9796 77.1528 98.5867 76.9032 97.2382C76.6536 95.8897 76.0118 94.6467 75.0596 93.6677C74.1074 92.6886 72.8878 92.0177 71.5564 91.7405C70.2249 91.4633 68.8418 91.5924 67.5833 92.1113C66.3248 92.6302 65.2479 93.5154 64.4898 94.6541C63.7317 95.7928 63.3267 97.1335 63.3265 98.5052C63.2844 99.4128 63.4284 100.319 63.7495 101.168C64.0706 102.017 64.5618 102.79 65.1925 103.438C65.8231 104.087 66.5797 104.597 67.4147 104.937C68.2497 105.277 69.1453 105.439 70.0453 105.414Z"/>
<path d="M94.1599 85.6545V102.177C94.207 102.579 94.1696 102.986 94.0504 103.372C93.9311 103.759 93.7325 104.116 93.4675 104.419C93.2025 104.723 92.8771 104.967 92.5125 105.136C92.1478 105.304 91.7521 105.393 91.3511 105.397C90.8098 105.417 90.271 105.314 89.774 105.097C89.277 104.88 88.8344 104.553 88.4784 104.141L83.2756 108.344C84.2521 109.539 85.4892 110.489 86.8902 111.12C88.2912 111.751 89.818 112.047 91.3511 111.984C97.256 111.984 101.23 108.087 101.23 102.515V85.6545H94.1599Z"/>
<path d="M137.362 105.365C135.555 105.365 133.822 104.641 132.544 103.351C131.266 102.062 130.548 100.313 130.548 98.4891C130.548 96.6654 131.266 94.9165 132.544 93.6269C133.822 92.3374 135.555 91.6129 137.362 91.6129C138.198 91.6084 139.024 91.7843 139.787 92.1287C140.549 92.4731 141.23 92.9781 141.783 93.6098L147.768 90.0509C146.547 88.44 144.968 87.1425 143.157 86.2639C141.346 85.3852 139.355 84.9503 137.346 84.9944C135.55 84.9318 133.76 85.2347 132.082 85.8851C130.404 86.5355 128.873 87.52 127.581 88.7801C126.288 90.0401 125.26 91.5498 124.558 93.2193C123.856 94.8887 123.494 96.6837 123.494 98.4972C123.494 100.311 123.856 102.106 124.558 103.775C125.26 105.445 126.288 106.954 127.581 108.214C128.873 109.474 130.404 110.459 132.082 111.109C133.76 111.76 135.55 112.063 137.346 112C139.365 112.044 141.364 111.604 143.181 110.716C144.999 109.829 146.581 108.519 147.8 106.895L141.783 103.32C141.244 103.972 140.567 104.493 139.802 104.847C139.037 105.201 138.204 105.378 137.362 105.365Z"/>
</svg>
