<svg width="26" height="26" viewBox="0 0 26 26" fill="none" xmlns="http://www.w3.org/2000/svg">
<path fill-rule="evenodd" clip-rule="evenodd" d="M24.8314 2.56061C25.4172 1.97481 25.4172 1.02505 24.8314 0.439255C24.2456 -0.14654 23.2959 -0.14654 22.7101 0.439255L12.7473 10.4024L2.78444 0.439255C2.19866 -0.14654 1.24893 -0.14654 0.663151 0.439255C0.0773736 1.02505 0.0773736 1.97481 0.663151 2.56061L10.626 12.5237L0.439333 22.7107C-0.146444 23.2965 -0.146445 24.2462 0.439333 24.832C1.02511 25.4178 1.97484 25.4178 2.56062 24.832L12.7473 14.6451L22.9339 24.832C23.5197 25.4178 24.4694 25.4178 25.0552 24.832C25.641 24.2462 25.641 23.2965 25.0552 22.7107L14.8686 12.5237L24.8314 2.56061Z" fill="#101066"/>
</svg>
