<svg width="22" height="16" viewBox="0 0 22 16" fill="none" xmlns="http://www.w3.org/2000/svg">
<path d="M20.5962 6.68013C20.1301 6.1962 19.6192 5.83752 19.0634 5.60464C19.5474 5.10281 19.7896 4.51124 19.7893 3.82994C19.7893 3.13074 19.5474 2.53037 19.0634 2.02827C18.5616 1.52644 17.9609 1.27539 17.2617 1.27539C16.5804 1.27539 15.9889 1.52644 15.4871 2.02827L15.2721 2.29721C15.4871 2.85299 15.5947 3.46245 15.5947 4.12559C15.5947 4.60952 15.5228 5.08464 15.3797 5.55068L15.1914 6.03461L16.2523 6.97578C17.7402 8.46364 18.4427 10.2653 18.4427 12.3805V12.4882C19.2685 12.3805 19.9451 12.1565 20.5546 11.8159C21.4688 11.3499 21.9466 10.7404 21.9466 10.0412C21.9469 8.73286 21.5103 7.61249 20.5962 6.68013Z" fill="black"/>
<path d="M13.8747 6.7066L13.3908 6.46464C14.0181 5.81939 14.3319 5.03954 14.3319 4.12535C14.3319 3.17538 14.0093 2.36855 13.3641 1.70541C12.7006 1.02411 11.9032 0.683594 10.9708 0.683594C10.0387 0.683594 9.2498 1.02411 8.60455 1.70541C7.94142 2.36855 7.60971 3.17538 7.60971 4.12535C7.60971 5.03954 7.92353 5.81939 8.55088 6.46464L8.03997 6.7066C7.50208 7.01133 6.992 7.39672 6.50779 7.86276C5.2886 9.11746 4.67969 10.6232 4.67969 12.38V12.407V12.5683C4.67969 13.4288 5.36044 14.1638 6.50751 14.7733C7.74432 15.4185 9.23191 15.7414 10.9708 15.7414C12.7097 15.7414 14.0905 15.4188 15.3097 14.7733C16.4749 14.1638 17.0671 13.4288 17.0671 12.5683V12.407V12.38C17.0671 10.6232 16.5462 9.11746 15.3094 7.86276C14.8434 7.39672 14.4302 7.01133 13.8747 6.7066Z" fill="black"/>
<path d="M6.74891 6.03462L6.56062 5.52371C6.4172 5.07556 6.34563 4.60952 6.34563 4.12559C6.34563 3.46245 6.46207 2.85271 6.69523 2.29721L6.48024 2.02827C5.97814 1.52644 5.37777 1.27539 4.67857 1.27539C3.97937 1.27539 3.379 1.52644 2.8769 2.02827C2.39296 2.53009 2.15072 3.13074 2.151 3.82994C2.151 4.51124 2.39296 5.10281 2.8769 5.60464C2.30322 5.83779 1.81929 6.1962 1.37114 6.68013C0.439063 7.61194 0 8.73231 0 10.041V10.0679C0 10.7671 0.401351 11.3496 1.31554 11.8157C1.925 12.1562 2.47747 12.3802 3.3033 12.4879V12.3802C3.3033 10.265 4.10297 8.43666 5.59083 6.9488C5.93134 6.60801 6.35472 6.30301 6.74891 6.03462Z" fill="black"/>
</svg>
