<?xml version="1.0" encoding="utf-8"?>
<!-- Generator: Adobe Illustrator 25.0.0, SVG Export Plug-In . SVG Version: 6.00 Build 0)  -->
<svg version="1.1" id="Layer_1" xmlns="http://www.w3.org/2000/svg" xmlns:xlink="http://www.w3.org/1999/xlink" x="0px" y="0px"
	 viewBox="0 0 32 27" style="enable-background:new 0 0 32 27;" xml:space="preserve">
<path d="M3.4,25.8c-2.1-1.3-3.2-2.7-3.2-4.4c0-0.3,0.1-0.7,0.2-1.2c0.2-2,0.8-4.4,1.9-7.1l0.8-2.4c0.4-1.6,1-3,1.9-4.4
	c1-1.4,2.3-3,3.9-4.9c0-0.2,0.1-0.3,0.3-0.4c0.2-0.2,0.5-0.3,0.9-0.4c0.5-0.2,1-0.3,1.5-0.5l1,0c0.3,0,0.6,0.1,0.8,0.2
	c0.2,0.1,0.5,0.3,0.8,0.6l0,0.5C14.4,2.2,14,3,13.3,4c-2.9,4.8-4.7,8.3-5.4,10.5c0,0.3,0,0.6-0.1,0.8c1.3-0.2,2.7,0.2,4.1,1.3
	c1.1,1.1,1.6,2.1,1.7,3.2c0,1.7-1.3,3.5-3.9,5.3c-1.5,0.9-2.7,1.4-3.3,1.4C5.8,26.6,4.9,26.4,3.4,25.8z M20.8,25.6
	c-2.1-1.3-3.2-2.7-3.2-4.4c0-0.3,0.1-0.7,0.2-1.2c0.2-2,0.8-4.4,1.9-7.1l0.8-2.4c0.4-1.6,1-3,1.9-4.4c1-1.4,2.3-3,3.9-4.9
	c0-0.2,0.1-0.3,0.3-0.4c0.2-0.2,0.5-0.3,0.9-0.4c0.5-0.2,1-0.3,1.5-0.5l1,0c0.3,0,0.6,0.1,0.8,0.2c0.2,0.1,0.5,0.3,0.8,0.6l0,0.5
	c0,0.7-0.4,1.6-1.1,2.6c-2.9,4.8-4.7,8.3-5.4,10.5c0,0.3,0,0.6-0.1,0.8c1.3-0.2,2.7,0.2,4.1,1.3c1.1,1.1,1.6,2.1,1.7,3.2
	c0,1.7-1.3,3.5-3.9,5.3c-1.5,0.9-2.6,1.4-3.3,1.4C23.2,26.4,22.3,26.2,20.8,25.6z"/>
</svg>
