<?xml version="1.0" encoding="utf-8"?>
<!-- Generator: Adobe Illustrator 25.0.0, SVG Export Plug-In . SVG Version: 6.00 Build 0)  -->
<svg version="1.1" id="Layer_1" xmlns="http://www.w3.org/2000/svg" xmlns:xlink="http://www.w3.org/1999/xlink" x="0px" y="0px"
	 viewBox="0 0 32 27" style="enable-background:new 0 0 32 27;" xml:space="preserve">
<path d="M28.7,1.1c2.1,1.3,3.1,2.8,3.1,4.4c0,0.3-0.1,0.7-0.2,1.2c-0.2,2-0.9,4.4-2,7.1l-0.8,2.4c-0.4,1.5-1,3-2,4.4
	c-1,1.4-2.3,3-3.9,4.9c0,0.2-0.1,0.3-0.3,0.3c-0.2,0.2-0.5,0.3-0.9,0.3c-0.5,0.2-1,0.3-1.5,0.5h-1c-0.3,0-0.6-0.1-0.8-0.2
	c-0.2-0.1-0.5-0.3-0.8-0.6v-0.5c0-0.7,0.4-1.5,1.2-2.6c2.9-4.8,4.8-8.3,5.6-10.4c0-0.3,0-0.6,0.1-0.8c-1.3,0.2-2.7-0.2-4.1-1.4
	c-1.1-1.1-1.6-2.2-1.6-3.2c0-1.7,1.3-3.4,3.9-5.2c1.5-0.9,2.7-1.4,3.4-1.4C26.3,0.3,27.2,0.5,28.7,1.1z M11.3,1.1
	c2.1,1.3,3.1,2.8,3.1,4.4c0,0.3-0.1,0.7-0.2,1.2c-0.2,2-0.9,4.4-2,7.1l-0.8,2.4c-0.4,1.5-1,3-2,4.4c-1,1.4-2.3,3-3.9,4.9
	c0,0.2-0.1,0.3-0.3,0.3c-0.2,0.2-0.5,0.3-0.9,0.3c-0.5,0.2-1,0.3-1.5,0.5h-1c-0.3,0-0.6-0.1-0.8-0.2c-0.2-0.1-0.5-0.3-0.8-0.6v-0.5
	c0-0.7,0.4-1.5,1.2-2.6C4.1,18,6,14.5,6.8,12.3c0-0.3,0-0.6,0.1-0.8c-1.3,0.2-2.7-0.2-4.1-1.4C1.7,9.1,1.2,8,1.2,6.9
	c0-1.7,1.3-3.4,3.9-5.2c1.5-0.9,2.6-1.4,3.4-1.4C8.9,0.3,9.8,0.5,11.3,1.1z"/>
</svg>
