<?xml version="1.0" encoding="utf-8"?>
<!-- Generator: Adobe Illustrator 25.0.0, SVG Export Plug-In . SVG Version: 6.00 Build 0)  -->
<svg version="1.1" id="Layer_1" xmlns="http://www.w3.org/2000/svg" xmlns:xlink="http://www.w3.org/1999/xlink" x="0px" y="0px"
	 viewBox="0 0 20 20" style="enable-background:new 0 0 20 20;" xml:space="preserve">
<path d="M19.7,18.1l-4.9-4.9C17.2,10,17,5.3,14,2.4C12.4,0.8,10.3,0,8.2,0C6.1,0,4,0.8,2.4,2.4c-3.2,3.2-3.2,8.4,0,11.6
	c1.6,1.6,3.7,2.4,5.8,2.4c1.8,0,3.5-0.5,5-1.7l4.9,4.9c0.2,0.2,0.5,0.3,0.8,0.3c0.3,0,0.6-0.1,0.8-0.3
	C20.1,19.3,20.1,18.5,19.7,18.1L19.7,18.1z M8.2,14.2c-1.6,0-3.1-0.6-4.2-1.8C1.7,10.2,1.7,6.3,4,4c1.1-1.1,2.6-1.8,4.2-1.8
	s3.1,0.6,4.2,1.8c1.2,1.1,1.8,2.6,1.8,4.3s-0.6,3.1-1.8,4.3C11.4,13.6,9.8,14.2,8.2,14.2z"/>
</svg>
