<?xml version="1.0" encoding="utf-8"?>
<!-- Generator: Adobe Illustrator 25.0.0, SVG Export Plug-In . SVG Version: 6.00 Build 0)  -->
<svg version="1.1" id="Layer_1" xmlns="http://www.w3.org/2000/svg" xmlns:xlink="http://www.w3.org/1999/xlink" x="0px" y="0px"
	 viewBox="0 0 22 21" style="enable-background:new 0 0 22 21;" xml:space="preserve">
<style type="text/css">
	.st0{fill-rule:evenodd;clip-rule:evenodd;}
</style>
<path class="st0" d="M6.6,8.2l7.7-3.5c-0.1-0.3-0.2-0.7-0.2-1c0-1.9,1.6-3.4,3.5-3.4s3.5,1.5,3.5,3.4c0,1.9-1.6,3.4-3.5,3.4
	c-0.8,0-1.6-0.3-2.2-0.7l-8,3.6c0,0.2,0,0.4,0,0.5c0,0.2,0,0.4,0,0.5l8,3.6c0.6-0.5,1.4-0.7,2.2-0.7c1.9,0,3.5,1.5,3.5,3.4
	c0,1.9-1.6,3.4-3.5,3.4s-3.5-1.5-3.5-3.4c0-0.3,0.1-0.7,0.2-1l-7.7-3.5C6,13.6,5.1,14,4.1,14c-1.9,0-3.5-1.5-3.5-3.4
	s1.6-3.4,3.5-3.4C5.1,7.1,6,7.5,6.6,8.2z"/>
</svg>
