<svg width="40" height="67" viewBox="0 0 40 67" fill="none" xmlns="http://www.w3.org/2000/svg">
<path d="M1 8.76367H39" stroke="black" stroke-width="2"/>
<path d="M1 56.9727H39" stroke="black" stroke-width="2"/>
<path d="M16.2004 5.69445C16.6001 5.69445 16.9242 5.3711 16.9242 4.97222C16.9242 4.57335 16.6001 4.25 16.2004 4.25C15.8006 4.25 15.4766 4.57335 15.4766 4.97222C15.4766 5.3711 15.8006 5.69445 16.2004 5.69445Z" fill="black"/>
<rect x="17.918" y="4.25" width="7.2381" height="1.44445" rx="0.722223" fill="black"/>
<path d="M1 62V5C1 2.79086 2.79086 1 5 1H35C37.2091 1 39 2.79086 39 5V62C39 64.2091 37.2091 66 35 66H5C2.79086 66 1 64.2091 1 62Z" stroke="black" stroke-width="2"/>
<ellipse cx="20.0009" cy="61.4852" rx="1.80952" ry="1.80555" fill="black"/>
</svg>
