<svg id="Layer_1" data-name="Layer 1" xmlns="http://www.w3.org/2000/svg" viewBox="0 0 40 67"><path d="M16.2,5.69A.72.72,0,1,0,15.48,5,.72.72,0,0,0,16.2,5.69Z"/><path d="M18.64,5.69h5.79a.72.72,0,1,0,0-1.44H18.64a.72.72,0,0,0,0,1.44Z"/><path d="M35,0H5A5,5,0,0,0,0,5V62a5,5,0,0,0,5,5H35a5,5,0,0,0,5-5V5A5,5,0,0,0,35,0ZM5,2H35a3,3,0,0,1,3,3V7.76H2V5A3,3,0,0,1,5,2ZM38,9.76V56H2V9.76ZM35,65H5a3,3,0,0,1-3-3V58H38v4A3,3,0,0,1,35,65Z"/><path d="M20,59.68a1.81,1.81,0,1,0,1.81,1.81A1.81,1.81,0,0,0,20,59.68Z"/></svg>