<svg width="72" height="72" viewBox="0 0 72 72" fill="none" xmlns="http://www.w3.org/2000/svg">
<path d="M52.9177 46.2322C52.8774 43.5869 52.6729 40.9503 52.6096 38.3065C52.5649 36.3941 52.467 34.4818 52.4828 32.5681C52.5318 29.93 52.4929 27.2933 52.3662 24.6596C52.2726 21.8415 52.323 18.9989 51.9212 16.2054C51.1768 12.5607 49.7123 10.6297 46.2088 9.71239C45.2353 9.45463 44.2374 9.37975 43.238 9.34807C41.2134 9.17527 39.1873 8.97367 37.154 9.12631C35.1467 9.22711 33.1364 9.17095 31.1334 9.35959C29.6963 9.46327 28.252 9.50503 26.8292 9.75415C24.6721 10.1473 21.8454 10.405 20.5897 12.5564C19.2836 14.738 19.2304 17.3789 19.144 19.8788C18.9942 22.9964 19.1584 26.5042 19.1958 29.9545C19.2404 34.178 19.3686 38.3986 19.4176 42.6221C19.4449 44.0909 19.6235 45.5497 19.7344 47.0127C19.8294 48.493 19.9388 49.9733 20.1174 51.4436C20.224 52.5625 20.3824 53.6756 20.7553 54.7325C22.3638 59.1692 26.8436 61.3061 30.9793 62.2493C33.2027 62.8225 35.5081 62.7721 37.7804 62.8858C39.7532 62.9679 41.7289 62.9233 43.696 62.7317C45.2425 62.5921 46.8337 62.3919 48.2593 61.7108C48.7921 61.4357 49.2976 61.106 49.7972 60.7719C50.2091 60.4983 50.631 60.229 50.9464 59.8301C52.4872 57.6514 52.7219 54.793 52.8241 52.1593C52.8342 50.0151 52.9408 48.4369 52.9177 46.2322ZM51.5785 51.6365C51.5497 53.7706 51.2531 57.1575 49.996 59.0324C49.6964 59.6026 49.0369 59.8834 48.3284 60.3903C46.9273 61.3839 45.388 61.6157 43.2985 61.8173C41.2825 62.0218 39.7072 62.0319 37.4752 61.9541C35.8177 61.8735 34.1531 61.8677 32.5057 61.6489C30.7878 61.3205 28.4147 60.7489 26.4318 59.6271C24.5137 58.6738 22.5539 56.6276 21.8569 54.3365C21.7316 53.9017 21.638 53.4596 21.5617 53.0132C21.5588 53.0031 21.5545 52.993 21.5516 52.9815C21.4825 52.7209 21.4724 52.4487 21.4264 52.1823C21.3846 51.9404 21.3428 51.697 21.3169 51.4508C21.2665 50.9511 21.2118 50.4514 21.1715 49.9517C21.1484 49.8653 21.1484 49.7732 21.147 49.6839C21.1441 49.5874 21.1312 49.4924 21.1312 49.3959C21.1312 49.3138 21.1326 49.2317 21.134 49.1497C21.0736 48.3937 21.0203 47.6362 20.9699 46.8788C20.8705 45.6346 20.7294 44.3933 20.6819 43.1463C20.5926 40.5961 20.6531 38.0429 20.5336 35.4941C20.4457 32.6113 20.4846 29.7255 20.3881 26.8426C20.2859 24.3903 20.3363 21.7969 20.3953 19.8946C20.4904 18.158 20.4803 16.3738 21.0217 14.7121C21.5876 13.0143 22.2558 11.9545 23.8139 11.4534C26.5211 10.4569 31.0398 10.2927 33.7758 10.1415C35.812 10.1602 37.8438 9.96007 39.8785 10.0249C40.3854 10.0018 40.8908 10.0465 41.3948 10.1026C41.4409 10.0998 41.4884 10.0983 41.5345 10.0998C41.7232 10.107 41.9089 10.1314 42.099 10.1358C42.3035 10.1415 42.5051 10.166 42.7096 10.1862C43.0926 10.2265 43.4785 10.2495 43.8616 10.2942C45.2512 10.3618 46.2376 10.5462 47.4817 11.1294C48.8252 11.7068 49.6144 12.7263 50.307 14.7222C50.9838 16.705 50.9881 20.1394 51.0688 22.6839C51.0889 24.7402 51.23 26.7922 51.2459 28.85C51.2516 31.5082 51.1883 34.165 51.3164 36.8218C51.3668 39.8156 51.5857 42.8021 51.6563 45.7959C51.7153 47.9213 51.5843 49.4621 51.5785 51.6365Z" fill="#FF5A3D"/>
<path d="M49.4199 24.6539C49.3119 22.0115 49.2989 19.3274 48.7618 16.7354C48.5645 15.903 48.1225 15.1326 47.437 14.6517C46.465 13.9792 45.3706 13.4982 44.2474 13.1944C41.618 12.6328 38.9165 12.4658 36.2381 12.401C34.0321 12.4586 31.8245 12.3318 29.6185 12.4226C28.5788 12.5061 27.5261 12.5982 26.4908 12.7797C26.1322 12.8272 25.7737 12.8877 25.4194 12.9554C24.6821 13.0648 24.1018 13.383 23.6597 13.8698C23.5719 13.9965 23.4913 14.1275 23.4207 14.2643C23.3645 14.3723 23.3141 14.4832 23.2666 14.5941C23.2047 14.7755 23.1514 14.9598 23.1111 15.1528C23.006 15.6611 22.9397 16.1752 22.8649 16.6878C22.8116 17.0594 22.8001 17.4352 22.754 17.8096C22.7439 18.4734 22.7338 19.1286 22.7209 19.7248C22.6906 21.3333 22.5538 23.525 22.5236 25.4978C22.3753 29.5672 22.2197 34.5669 22.646 39.0381C22.7828 41.1693 22.9657 43.2976 23.2738 45.4086C23.4682 46.7594 24.0658 48.5219 24.7541 49.6984C25.4785 51.0102 26.4245 51.4134 27.7234 51.9592C29.4385 52.685 31.2529 53.127 33.0673 53.4741C35.6909 53.9824 38.3809 54.256 41.0405 53.9162C42.8348 53.6138 44.0876 53.2523 45.6154 52.8088C47.0309 52.407 47.9036 51.6366 48.4825 50.2053C49.3479 48.2858 49.309 46.1243 49.3997 44.0478C49.4847 41.2629 49.6316 38.3498 49.6229 35.2782C49.6546 31.733 49.597 28.192 49.4199 24.6539ZM32.1701 13.7042C32.1687 13.576 32.2004 13.445 32.2234 13.3139C32.6554 13.3197 33.1047 13.3298 33.5799 13.3442C35.3554 13.3067 37.1295 13.3269 38.9007 13.4334C38.8964 13.5846 38.882 13.7402 38.8546 14.0757C38.7567 14.7467 38.3089 14.9642 38.2225 14.9714C36.4786 15.1773 35.1639 15.2766 33.7109 15.3256C32.7058 15.317 32.6137 15.3098 32.3516 15.1298C32.3372 15.1067 32.3242 15.0822 32.3141 15.0563C32.2033 14.9872 32.1269 13.8035 32.1701 13.7042ZM48.1815 43.0528C48.0951 44.7506 48.1325 46.4728 47.8042 48.1446C47.3506 49.9835 46.7314 51.3933 45.2972 51.821C43.6369 52.3653 42.4618 52.6878 40.3911 53.0248C37.9028 53.2941 35.5412 53.0464 32.8887 52.5194C29.9266 51.8786 26.6693 51.1067 25.5677 49.121C24.9457 48.051 24.8089 47.1568 24.5727 45.7845C24.3481 44.2178 24.158 42.6453 24.0399 41.0642C23.8772 38.6565 23.654 36.2517 23.6223 33.8368C23.569 30.6342 23.7202 28.0653 23.7922 24.9146C23.8369 23.7755 23.8916 22.2765 23.9377 20.7429C23.8973 20.2533 23.8671 19.7608 23.8988 19.2712C23.9146 19.0192 23.9017 18.7629 23.9017 18.5109C23.9017 18.3842 23.9031 18.2603 23.9132 18.135C23.9218 18.0126 23.8959 17.8931 23.9045 17.7707C23.9218 17.5346 23.9045 17.2926 23.9319 17.0536C23.9593 16.8059 23.9708 16.564 24.0097 16.3178C24.0529 16.0499 24.1061 15.772 24.1911 15.5142C24.2588 15.3098 24.3207 15.1139 24.4273 14.9339C24.4474 14.8936 24.4661 14.8533 24.4877 14.8158C24.505 14.7885 24.5209 14.7597 24.5381 14.7323C24.5497 14.7136 24.5626 14.6949 24.5741 14.6776C24.5972 14.6445 24.6188 14.6142 24.6418 14.584C25.0306 14.0944 25.6153 13.949 26.462 13.7891C26.6305 13.7574 26.7932 13.7286 26.9545 13.7013C27.0049 13.6955 27.0581 13.6883 27.1085 13.6811C27.2108 13.6624 27.313 13.648 27.4167 13.6293C27.7162 13.576 28.0129 13.5256 28.3153 13.4982C28.4895 13.4824 28.6623 13.4637 28.8365 13.4493C28.8409 13.4464 28.8452 13.445 28.8495 13.4421C29.5551 13.373 30.4666 13.517 31.1693 13.5026C30.9908 15.3155 30.8813 15.5733 32.5877 16.0715C33.9125 16.0946 35.9257 16.1622 37.2433 16.0312C37.8178 15.9664 38.4053 15.9952 38.9626 15.8138C39.5357 15.6237 39.9389 15.088 40.0786 14.4818C40.1319 14.1678 40.142 13.8467 40.1463 13.527C40.777 13.5803 41.4063 13.6422 42.0356 13.72C43.2279 13.8842 44.3453 14.0267 45.637 14.6776C46.4679 15.0866 46.933 15.353 47.2844 16.0442C47.6055 16.6677 47.7207 17.7866 47.846 18.8147C47.9727 20.3094 48.0778 21.8085 48.1282 23.309C48.2405 26.7203 48.4249 30.1288 48.3716 33.5445C48.4105 36.8997 48.278 40.1008 48.1815 43.0528Z" fill="#FF5A3D"/>
<path d="M39.8389 56.8876C39.7942 56.1475 39.4011 55.4001 38.7747 55.0603C38.6782 54.9839 38.5645 54.9292 38.4651 54.9134C38.337 54.8803 38.2045 54.8615 38.072 54.8515C37.5925 54.7924 37.064 54.863 36.6752 55.1308C35.4555 55.691 34.4922 56.9985 34.9414 58.3723C35.1488 58.8561 35.6211 59.1441 36.0834 59.3025C36.7803 59.5689 37.5406 59.4436 38.2218 59.183C38.6451 59.0361 39.0483 58.8287 39.3392 58.4601C39.6776 58.0295 39.8691 57.4521 39.8389 56.8876ZM38.1598 57.9676C38.0043 58.2095 37.1317 58.4702 37.0525 58.4831C36.9862 58.499 36.8451 58.5148 36.763 58.522C36.6954 58.522 36.6277 58.5177 36.56 58.5119C36.5341 58.5062 36.501 58.499 36.4621 58.4875C36.4304 58.4759 36.3958 58.4615 36.3627 58.4471C36.344 58.4385 36.3282 58.4299 36.3138 58.4241C36.2734 58.3982 36.2331 58.3708 36.1942 58.3406C36.187 58.3334 36.1798 58.3262 36.1726 58.319C36.1654 58.306 36.1568 58.2931 36.1496 58.2801C35.9106 57.8913 36.2648 56.7839 36.7573 56.4239C37.2613 55.9775 37.7206 55.8379 37.977 55.7745C38.0043 55.7716 38.0245 55.7687 38.0418 55.7673C38.0734 55.7673 38.1022 55.7687 38.1238 55.7702C38.131 55.7716 38.1397 55.7731 38.1469 55.7759C38.157 55.7803 38.1656 55.7846 38.1742 55.7875C38.1814 55.7918 38.1886 55.7975 38.1958 55.8033C38.4334 56.087 38.455 56.1475 38.5587 56.5694C38.6941 57.095 38.3701 57.7862 38.1598 57.9676Z" fill="#FF5A3D"/>
</svg>
