<svg width="26" height="30" viewBox="0 0 26 30" fill="none" xmlns="http://www.w3.org/2000/svg">
<path d="M25.986 7.89532C24.2945 7.89532 22.7339 7.34528 21.4806 6.41737C20.0432 5.35366 19.0105 3.79332 18.6458 1.9949C18.5555 1.55055 18.5068 1.09199 18.5022 0.62207H13.6702V13.5821L13.6644 20.6809C13.6644 22.5788 12.4054 24.188 10.66 24.7539C10.1535 24.9181 9.60646 24.996 9.03683 24.9653C8.30975 24.9261 7.6284 24.7107 7.0362 24.363C5.77597 23.6231 4.92153 22.281 4.89838 20.7457C4.86191 18.3461 6.83822 16.3897 9.28112 16.3897C9.76334 16.3897 10.2264 16.4669 10.66 16.6073V13.065V11.7916C10.2027 11.7251 9.73729 11.6905 9.26665 11.6905C6.59278 11.6905 4.09199 12.7815 2.30439 14.7469C0.953269 16.2323 0.142828 18.1273 0.0177888 20.1144C-0.146036 22.7248 0.827071 25.2062 2.71424 27.037C2.99153 27.3058 3.28271 27.5552 3.5872 27.7854C5.20519 29.0076 7.18324 29.6702 9.26665 29.6702C9.73729 29.6702 10.2027 29.6361 10.66 29.5696C12.6062 29.2866 14.4019 28.4121 15.8191 27.037C17.5604 25.3477 18.5225 23.1049 18.5329 20.7178L18.508 10.1171C19.3387 10.7461 20.247 11.2666 21.2218 11.6706C22.7379 12.2985 24.3455 12.6167 25.9999 12.6161V9.17211V7.89418C26.0011 7.89532 25.9872 7.89532 25.986 7.89532Z" fill="white"/>
</svg>
