<?xml version="1.0" encoding="utf-8"?>
<!-- Generator: Adobe Illustrator 25.0.0, SVG Export Plug-In . SVG Version: 6.00 Build 0)  -->
<svg version="1.1" id="Layer_1" xmlns="http://www.w3.org/2000/svg" xmlns:xlink="http://www.w3.org/1999/xlink" x="0px" y="0px"
	 viewBox="0 0 22 17" style="enable-background:new 0 0 22 17;" xml:space="preserve">
<style type="text/css">
	.st0{fill-rule:evenodd;clip-rule:evenodd;}
</style>
<path class="st0" d="M10.6,4.6l0,0.7L10,5.3C7.3,4.9,5,3.8,3,1.9l-1-1L1.8,1.6C1.3,3.2,1.6,4.9,2.7,6c0.6,0.6,0.5,0.7-0.6,0.3
	C1.8,6.2,1.5,6.1,1.5,6.1C1.4,6.2,1.7,7.6,2,8.1C2.4,8.8,3.2,9.6,4,10l0.7,0.3l-0.8,0c-0.8,0-0.8,0-0.8,0.3c0.3,1,1.4,2,2.7,2.4
	l0.9,0.3l-0.8,0.5C4.8,14.5,3.4,14.9,2,15c-0.7,0-1.2,0.1-1.2,0.1c0,0.1,1.8,1,2.8,1.3c3.1,1,6.8,0.5,9.6-1.1c2-1.2,3.9-3.5,4.8-5.7
	c0.5-1.2,1-3.4,1-4.4c0-0.7,0-0.8,0.9-1.6c0.5-0.5,0.9-1,1-1.1c0.1-0.3,0.1-0.3-0.6,0c-1.2,0.4-1.4,0.4-0.8-0.3c0.5-0.5,1-1.3,1-1.6
	c0,0-0.2,0-0.5,0.2c-0.3,0.1-0.8,0.4-1.3,0.5L18,1.5L17.3,1c-0.4-0.3-0.9-0.6-1.2-0.6c-0.7-0.2-1.9-0.2-2.5,0.1
	C11.7,1.1,10.5,2.8,10.6,4.6z"/>
</svg>
