<?xml version="1.0" encoding="UTF-8"?>
<svg id="svg" width="400" height="400" version="1.1" viewBox="0 0 400 400" xmlns="http://www.w3.org/2000/svg" xmlns:cc="http://creativecommons.org/ns#" xmlns:dc="http://purl.org/dc/elements/1.1/" xmlns:rdf="http://www.w3.org/1999/02/22-rdf-syntax-ns#">
 <metadata>
  <rdf:RDF>
   <cc:Work rdf:about="">
    <dc:format>image/svg+xml</dc:format>
    <dc:type rdf:resource="http://purl.org/dc/dcmitype/StillImage"/>
    <dc:title/>
   </cc:Work>
  </rdf:RDF>
 </metadata>
 <g id="svgg">
  <path d="m167.6 59.852c-34.741 5.24-67.452 35.255-88.002 80.748-0.497 1.1-1.425 3.141-2.063 4.536-6.224 13.62-12.731 35.106-15.706 51.864-4.951 27.892-4.226 58.316 1.911 80.2 1.292 4.608 1.6 5.544 3.524 10.686 11.05 29.532 32.291 47.754 60.936 52.276 31.096 4.909 57.587-3.856 91.775-30.365 2.333-1.81 10.34-8.458 10.825-8.99 0.986-1.079 5.587-4.807 5.933-4.807 0.244 0 1.744 1.738 3.334 3.862 12.022 16.064 22.046 21.103 41.933 21.077 11.717-0.015 14.455-0.563 22.627-4.528 20.121-9.763 42.264-43.03 33.711-50.646-5.163-4.598-12.353-1.018-23.335 11.621-8.236 9.479-26.73 13.65-36.597 8.253-5.058-2.765-11.638-12.431-10.164-14.93 0.165-0.28 2.405-3.209 4.978-6.509 13.576-17.415 24.618-33.918 35.596-53.2 17.99-31.599 28.157-58.483 32.45-85.8 1.451-9.237 0.56-24.959-1.898-33.494-8.837-30.678-45.08-32.597-72.176-3.823-12.012 12.756-24.802 35.913-31.215 56.517-0.171 0.55-0.789 2.53-1.372 4.4-4.006 12.835-7.18 27.07-8.785 39.4-0.343 2.64-0.811 6.15-1.039 7.8-2.721 19.701-2.237 49.881 1.048 65.279 1.134 5.318 1.249 5.053-4.712 10.877-46.744 45.669-95.194 44.335-113.39-3.122-8.191-21.368-7.93-55.751 0.653-85.834 2.64-9.253 4.505-14.918 7.506-22.8 1.215-3.19 2.446-6.446 2.735-7.235 4.716-12.848 16.819-33.52 25.739-43.965 17.293-20.248 37.445-24.801 43.574-9.845 2.773 6.768 2.589 14.947-0.627 27.845-1.078 4.323-4.268 11.733-6.886 15.992-4.971 8.09-4.867 13.425 0.366 18.798 10.37 10.647 27.132 5.061 35.38-11.79 2.718-5.554 4.129-9.905 6.227-19.2 1.808-8.009 2.532-27.351 1.273-34-5.392-28.473-25.456-41.766-56.07-37.148m140.55 38.794c5.559 1.894 6.791 16.922 2.832 34.554-0.371 1.65-0.81 3.63-0.976 4.4-1.13 5.246-6.12 20.344-8.394 25.4-0.198 0.44-1.026 2.33-1.841 4.2-3.027 6.947-7.793 16.785-10.561 21.8-0.729 1.32-1.721 3.12-2.206 4-7.385 13.411-24.954 40.6-26.235 40.6-1.562 0 0.208-27.168 2.671-41 0.313-1.76 0.761-4.28 0.995-5.6 0.501-2.819 2.621-12.58 3.172-14.6 0.21-0.77 0.823-3.117 1.363-5.216 2.174-8.446 6.869-23.499 8.417-26.984 0.294-0.66 0.852-2.1 1.24-3.2 0.389-1.1 0.825-2.18 0.969-2.4s0.584-1.3 0.977-2.4c5.416-15.146 16.914-31.546 23.582-33.633 2.111-0.661 1.806-0.667 3.995 0.079" fill-rule="evenodd"/>
 </g>
</svg>
