<svg id="Capa_1" enable-background="new 0 0 480 480" height="512" viewBox="0 0 480 480" width="512"
	 xmlns="http://www.w3.org/2000/svg">
	<g>
		<g id="Out_line_24_">
			<path d="m388 460c2.209 0 4-1.791 4-4v-392c0-2.209-1.791-4-4-4s-4 1.791-4 4v392c0 2.209 1.791 4 4 4z"/>
			<path d="m372 60c-2.209 0-4 1.791-4 4v392c0 2.209 1.791 4 4 4s4-1.791 4-4v-392c0-2.209-1.791-4-4-4z"/>
			<path d="m108 180h24c6.624-.007 11.993-5.376 12-12v-24c-.002-1.787-.406-3.551-1.183-5.16l8.011-8.011c1.562-1.562 1.562-4.095 0-5.657s-4.095-1.562-5.657.001l-8.011 8.011c-1.61-.777-3.373-1.181-5.16-1.183h-24c-6.624.007-11.993 5.376-12 12v24c.007 6.623 5.376 11.992 12 11.999zm-4-36c.002-2.208 1.792-3.998 4-4h22.343l-17.172 17.172c-1.562 1.562-1.563 4.094-.001 5.657 1.562 1.562 4.094 1.563 5.657.001.001-.001.001-.001.002-.002l17.171-17.171v22.343c-.002 2.208-1.792 3.998-4 4h-24c-2.208-.002-3.998-1.792-4-4z"/>
			<path d="m108 260h24c6.624-.007 11.993-5.376 12-12v-24c-.002-1.787-.406-3.551-1.183-5.16l8.011-8.011c1.562-1.562 1.562-4.095 0-5.657s-4.095-1.562-5.657.001l-8.011 8.011c-1.61-.777-3.373-1.181-5.16-1.183h-24c-6.624.007-11.993 5.376-12 12v24c.007 6.623 5.376 11.992 12 11.999zm-4-36c.002-2.208 1.792-3.998 4-4h22.343l-17.172 17.172c-1.562 1.562-1.562 4.095 0 5.657s4.095 1.562 5.657 0l17.172-17.172v22.343c-.002 2.208-1.792 3.998-4 4h-24c-2.208-.002-3.998-1.792-4-4z"/>
			<path d="m108 340h24c6.624-.007 11.993-5.376 12-12v-24c-.002-1.787-.406-3.551-1.183-5.16l8.011-8.011c1.562-1.562 1.562-4.095 0-5.657s-4.095-1.562-5.657 0l-8.011 8.011c-1.61-.777-3.373-1.181-5.16-1.183h-24c-6.624.007-11.993 5.376-12 12v24c.007 6.624 5.376 11.993 12 12zm-4-36c.002-2.208 1.792-3.998 4-4h22.343l-17.172 17.172c-1.562 1.562-1.562 4.095 0 5.657s4.095 1.562 5.657 0l17.172-17.172v22.343c-.002 2.208-1.792 3.998-4 4h-24c-2.208-.002-3.998-1.792-4-4z"/>
			<path d="m108 420h24c6.624-.007 11.993-5.376 12-12v-24c-.007-6.624-5.376-11.993-12-12h-24c-6.624.007-11.993 5.376-12 12v24c.007 6.624 5.376 11.993 12 12zm-4-36c.002-2.208 1.792-3.998 4-4h24c2.208.002 3.998 1.792 4 4v24c-.002 2.208-1.792 3.998-4 4h-24c-2.208-.002-3.998-1.792-4-4z"/>
			<path d="m380 40h-32.147c-1.659-22.396-17.105-40-35.853-40-13.914 0-26.01 9.698-32 23.854-5.99-14.156-18.086-23.854-32-23.854s-26.01 9.698-32 23.854c-5.99-14.156-18.086-23.854-32-23.854s-26.01 9.698-32 23.854c-5.99-14.156-18.086-23.854-32-23.854-19.851 0-36 19.738-36 44 0 .098 0 .194.001.292-9.918 5.697-16.023 16.27-16.001 27.708v376c.02 17.665 14.335 31.98 32 32h280c17.665-.02 31.98-14.335 32-32v-376c-.02-17.665-14.335-31.98-32-32zm-290.733 15.116c2.323 10.018 7.699 18.424 14.784 23.539-.024.448-.051.896-.051 1.345 0 11.028 7.178 20 16 20s16-8.972 16-20c-.003-1.238-.098-2.474-.285-3.698-.009-.091-.018-.18-.033-.271-1.478-9.133-7.947-16.031-15.682-16.031-2.555 0-5.31-3.138-6.828-8h39.472c1.856 11.385 7.597 21.018 15.407 26.655-.024.448-.051.896-.051 1.345 0 11.028 7.178 20 16 20s16-8.972 16-20c-.003-1.238-.098-2.474-.285-3.698-.009-.091-.018-.18-.033-.271-1.478-9.133-7.947-16.031-15.682-16.031-2.555 0-5.31-3.138-6.828-8h39.472c1.856 11.385 7.597 21.018 15.407 26.655-.024.448-.051.896-.051 1.345 0 11.028 7.178 20 16 20s16-8.972 16-20c-.003-1.238-.098-2.474-.285-3.698-.009-.091-.018-.18-.033-.271-1.478-9.133-7.947-16.031-15.682-16.031-2.555 0-5.31-3.138-6.828-8h39.472c1.856 11.385 7.597 21.018 15.407 26.655-.024.448-.051.896-.051 1.345 0 11.028 7.178 20 16 20s16-8.972 16-20c-.003-1.238-.098-2.474-.285-3.698-.009-.091-.018-.18-.033-.271-1.478-9.133-7.947-16.031-15.682-16.031-2.555 0-5.31-3.138-6.828-8h26.828c11.041.012 19.988 8.959 20 20v376c-.012 11.041-8.959 19.988-20 20h-232c-11.041-.012-19.988-8.959-20-20v-376c-.003-6.843 3.493-13.212 9.267-16.884zm30.733-43.116c13.233 0 24 14.355 24 32h-8c0-13.458-7.028-24-16-24s-16 10.542-16 24 7.028 24 16 24c3.039 0 5.743 2.704 7.091 6.559-2.244.947-4.655 1.437-7.091 1.441-13.233 0-24-14.355-24-32s10.767-32 24-32zm3.684 28h-7.368c.761-4.648 2.707-7.421 3.684-7.953.978.532 2.923 3.305 3.684 7.953zm4.074 42.814c-.871 5.198-4.066 9.186-7.758 9.186-3.694 0-6.891-3.993-7.76-9.196 5.05 1.591 10.466 1.595 15.518.01zm72.242-38.814c0-13.458-7.028-24-16-24s-16 10.542-16 24 7.028 24 16 24c3.039 0 5.743 2.704 7.091 6.559-2.244.947-4.655 1.437-7.091 1.441-13.233 0-24-14.355-24-32s10.767-32 24-32 24 14.355 24 32zm-12.316-4h-7.368c.761-4.648 2.707-7.421 3.684-7.953.978.532 2.923 3.305 3.684 7.953zm4.074 42.814c-.871 5.198-4.066 9.186-7.758 9.186-3.694 0-6.891-3.993-7.76-9.196 5.05 1.591 10.466 1.595 15.518.01zm56.242-70.814c13.233 0 24 14.355 24 32h-8c0-13.458-7.028-24-16-24s-16 10.542-16 24 7.028 24 16 24c3.039 0 5.743 2.704 7.091 6.559-2.244.947-4.655 1.437-7.091 1.441-13.233 0-24-14.355-24-32s10.767-32 24-32zm3.684 28h-7.368c.761-4.648 2.707-7.421 3.684-7.953.978.532 2.923 3.305 3.684 7.953zm4.074 42.814c-.871 5.198-4.066 9.186-7.758 9.186-3.694 0-6.891-3.993-7.76-9.196 5.05 1.591 10.466 1.595 15.518.01zm56.242-70.814c13.233 0 24 14.355 24 32h-8c0-13.458-7.028-24-16-24s-16 10.542-16 24 7.028 24 16 24c3.039 0 5.743 2.704 7.091 6.559-2.244.947-4.655 1.437-7.091 1.441-13.233 0-24-14.355-24-32s10.767-32 24-32zm3.684 28h-7.368c.761-4.648 2.707-7.421 3.684-7.953.978.532 2.923 3.305 3.684 7.953zm4.074 42.814c-.871 5.198-4.066 9.186-7.758 9.186-3.694 0-6.891-3.993-7.76-9.196 5.05 1.591 10.466 1.595 15.518.01zm40.242 365.186v-376c.003-7.531-3.037-14.744-8.431-20h28.431c11.041.012 19.988 8.959 20 20v376c-.012 11.041-8.959 19.988-20 20h-28.431c5.394-5.256 8.434-12.469 8.431-20z"/>
			<path d="m196 148h-32c-2.209 0-4-1.791-4-4s1.791-4 4-4h32c2.209 0 4 1.791 4 4s-1.791 4-4 4z"/>
			<path d="m316 148h-96c-2.209 0-4-1.791-4-4s1.791-4 4-4h96c2.209 0 4 1.791 4 4s-1.791 4-4 4z"/>
			<path d="m228 172h-64c-2.209 0-4-1.791-4-4s1.791-4 4-4h64c2.209 0 4 1.791 4 4s-1.791 4-4 4z"/>
			<path d="m316 172h-64c-2.209 0-4-1.791-4-4s1.791-4 4-4h64c2.209 0 4 1.791 4 4s-1.791 4-4 4z"/>
			<path d="m180 228h-16c-2.209 0-4-1.791-4-4s1.791-4 4-4h16c2.209 0 4 1.791 4 4s-1.791 4-4 4z"/>
			<path d="m316 228h-112c-2.209 0-4-1.791-4-4s1.791-4 4-4h112c2.209 0 4 1.791 4 4s-1.791 4-4 4z"/>
			<path d="m236 252h-72c-2.209 0-4-1.791-4-4s1.791-4 4-4h72c2.209 0 4 1.791 4 4s-1.791 4-4 4z"/>
			<path d="m316 252h-56c-2.209 0-4-1.791-4-4s1.791-4 4-4h56c2.209 0 4 1.791 4 4s-1.791 4-4 4z"/>
			<path d="m196 308h-32c-2.209 0-4-1.791-4-4s1.791-4 4-4h32c2.209 0 4 1.791 4 4s-1.791 4-4 4z"/>
			<path d="m316 308h-24c-2.209 0-4-1.791-4-4s1.791-4 4-4h24c2.209 0 4 1.791 4 4s-1.791 4-4 4z"/>
			<path d="m268 308h-48c-2.209 0-4-1.791-4-4s1.791-4 4-4h48c2.209 0 4 1.791 4 4s-1.791 4-4 4z"/>
			<path d="m196 332h-32c-2.209 0-4-1.791-4-4s1.791-4 4-4h32c2.209 0 4 1.791 4 4s-1.791 4-4 4z"/>
			<path d="m292 332h-72c-2.209 0-4-1.791-4-4s1.791-4 4-4h72c2.209 0 4 1.791 4 4s-1.791 4-4 4z"/>
			<path d="m196 388h-32c-2.209 0-4-1.791-4-4s1.791-4 4-4h32c2.209 0 4 1.791 4 4s-1.791 4-4 4z"/>
			<path d="m316 388h-96c-2.209 0-4-1.791-4-4s1.791-4 4-4h96c2.209 0 4 1.791 4 4s-1.791 4-4 4z"/>
			<path d="m228 412h-24c-2.209 0-4-1.791-4-4s1.791-4 4-4h24c2.209 0 4 1.791 4 4s-1.791 4-4 4z"/>
			<path d="m180 412h-16c-2.209 0-4-1.791-4-4s1.791-4 4-4h16c2.209 0 4 1.791 4 4s-1.791 4-4 4z"/>
			<path d="m316 412h-64c-2.209 0-4-1.791-4-4s1.791-4 4-4h64c2.209 0 4 1.791 4 4s-1.791 4-4 4z"/>
		</g>
	</g>
</svg>
